<mxfile host="Electron" modified="2023-12-10T23:36:36.274Z" agent="Mozilla/5.0 (Windows NT 10.0; Win64; x64) AppleWebKit/537.36 (KHTML, like Gecko) draw.io/21.2.1 Chrome/112.0.5615.87 Electron/24.1.2 Safari/537.36" etag="xPyU2JkvsY6nLn6Btc1Q" version="21.2.1" type="device">
  <diagram name="Page-1" id="NKHTC7Q2GGb2dfWZ-VKz">
    <mxGraphModel dx="1730" dy="572" grid="1" gridSize="10" guides="1" tooltips="1" connect="1" arrows="1" fold="1" page="1" pageScale="1" pageWidth="850" pageHeight="1100" math="0" shadow="0">
      <root>
        <mxCell id="0" />
        <mxCell id="1" parent="0" />
        <mxCell id="6zvV-r1F8-ObMhPHFeh8-11" value="" style="edgeStyle=orthogonalEdgeStyle;rounded=0;orthogonalLoop=1;jettySize=auto;html=1;" parent="1" source="g0FRpj6m9xTWs_24U1S6-1" target="6zvV-r1F8-ObMhPHFeh8-10" edge="1">
          <mxGeometry relative="1" as="geometry" />
        </mxCell>
        <mxCell id="g0FRpj6m9xTWs_24U1S6-1" value="START" style="ellipse;whiteSpace=wrap;html=1;" parent="1" vertex="1">
          <mxGeometry x="-30" y="260" width="120" height="80" as="geometry" />
        </mxCell>
        <mxCell id="g0FRpj6m9xTWs_24U1S6-2" value="" style="edgeStyle=orthogonalEdgeStyle;rounded=0;orthogonalLoop=1;jettySize=auto;html=1;" parent="1" source="g0FRpj6m9xTWs_24U1S6-3" target="g0FRpj6m9xTWs_24U1S6-6" edge="1">
          <mxGeometry relative="1" as="geometry" />
        </mxCell>
        <mxCell id="g0FRpj6m9xTWs_24U1S6-3" value="Start" style="ellipse;whiteSpace=wrap;html=1;" parent="1" vertex="1">
          <mxGeometry x="1107" y="1500" width="120" height="80" as="geometry" />
        </mxCell>
        <mxCell id="g0FRpj6m9xTWs_24U1S6-4" value="" style="edgeStyle=orthogonalEdgeStyle;rounded=0;orthogonalLoop=1;jettySize=auto;html=1;entryX=0;entryY=0.5;entryDx=0;entryDy=0;" parent="1" source="g0FRpj6m9xTWs_24U1S6-6" target="g0FRpj6m9xTWs_24U1S6-9" edge="1">
          <mxGeometry relative="1" as="geometry">
            <mxPoint x="1390" y="1695" as="targetPoint" />
          </mxGeometry>
        </mxCell>
        <mxCell id="g0FRpj6m9xTWs_24U1S6-5" value="" style="edgeStyle=orthogonalEdgeStyle;rounded=0;orthogonalLoop=1;jettySize=auto;html=1;entryX=1;entryY=0.5;entryDx=0;entryDy=0;" parent="1" source="g0FRpj6m9xTWs_24U1S6-6" target="g0FRpj6m9xTWs_24U1S6-56" edge="1">
          <mxGeometry relative="1" as="geometry">
            <mxPoint x="1000" y="1694.9999999999995" as="targetPoint" />
          </mxGeometry>
        </mxCell>
        <mxCell id="g0FRpj6m9xTWs_24U1S6-6" value="&lt;br&gt;Is the issue from Me-Sui or Local?" style="rhombus;whiteSpace=wrap;html=1;" parent="1" vertex="1">
          <mxGeometry x="1090.5" y="1625" width="153" height="140" as="geometry" />
        </mxCell>
        <mxCell id="g0FRpj6m9xTWs_24U1S6-7" value="&lt;span style=&quot;color: rgb(0, 0, 0); font-family: Helvetica; font-size: 25px; font-style: normal; font-variant-ligatures: normal; font-variant-caps: normal; font-weight: 400; letter-spacing: normal; orphans: 2; text-align: center; text-indent: 0px; text-transform: none; widows: 2; word-spacing: 0px; -webkit-text-stroke-width: 0px; background-color: rgb(251, 251, 251); text-decoration-thickness: initial; text-decoration-style: initial; text-decoration-color: initial; float: none; display: inline !important;&quot;&gt;If IA(Local)&lt;/span&gt;" style="text;whiteSpace=wrap;html=1;" parent="1" vertex="1">
          <mxGeometry x="1256" y="1639" width="133.5" height="55" as="geometry" />
        </mxCell>
        <mxCell id="g0FRpj6m9xTWs_24U1S6-8" value="" style="edgeStyle=orthogonalEdgeStyle;rounded=0;orthogonalLoop=1;jettySize=auto;html=1;entryX=0;entryY=0.5;entryDx=0;entryDy=0;" parent="1" source="g0FRpj6m9xTWs_24U1S6-9" target="g0FRpj6m9xTWs_24U1S6-13" edge="1">
          <mxGeometry relative="1" as="geometry">
            <mxPoint x="1838.5000000000005" y="1700" as="targetPoint" />
            <Array as="points" />
          </mxGeometry>
        </mxCell>
        <mxCell id="g0FRpj6m9xTWs_24U1S6-9" value="Go to helpdesk Portal fill up details(details of request, requestor initial analysis, approver, etc.) without file attachment" style="rounded=1;whiteSpace=wrap;html=1;" parent="1" vertex="1">
          <mxGeometry x="1410" y="1650" width="190" height="90" as="geometry" />
        </mxCell>
        <mxCell id="g0FRpj6m9xTWs_24U1S6-10" value="" style="edgeStyle=orthogonalEdgeStyle;rounded=0;orthogonalLoop=1;jettySize=auto;html=1;" parent="1" source="g0FRpj6m9xTWs_24U1S6-11" target="g0FRpj6m9xTWs_24U1S6-19" edge="1">
          <mxGeometry relative="1" as="geometry" />
        </mxCell>
        <mxCell id="g0FRpj6m9xTWs_24U1S6-11" value="ISD will fill the Issue control sheet and input the necessary info.(the Issue Number is the last issue number +1)" style="rounded=1;whiteSpace=wrap;html=1;" parent="1" vertex="1">
          <mxGeometry x="1683.25" y="1835" width="164.5" height="80" as="geometry" />
        </mxCell>
        <mxCell id="g0FRpj6m9xTWs_24U1S6-12" value="" style="edgeStyle=orthogonalEdgeStyle;rounded=0;orthogonalLoop=1;jettySize=auto;html=1;" parent="1" source="g0FRpj6m9xTWs_24U1S6-13" target="g0FRpj6m9xTWs_24U1S6-11" edge="1">
          <mxGeometry relative="1" as="geometry" />
        </mxCell>
        <mxCell id="g0FRpj6m9xTWs_24U1S6-13" value="Does the request approved?" style="rhombus;whiteSpace=wrap;html=1;" parent="1" vertex="1">
          <mxGeometry x="1675.5" y="1615" width="180" height="160" as="geometry" />
        </mxCell>
        <mxCell id="g0FRpj6m9xTWs_24U1S6-14" value="NO" style="text;html=1;align=center;verticalAlign=middle;resizable=0;points=[];autosize=1;strokeColor=none;fillColor=none;fontSize=25;" parent="1" vertex="1">
          <mxGeometry x="1855.5" y="1650" width="60" height="40" as="geometry" />
        </mxCell>
        <mxCell id="g0FRpj6m9xTWs_24U1S6-15" value="YES" style="text;html=1;align=center;verticalAlign=middle;resizable=0;points=[];autosize=1;strokeColor=none;fillColor=none;fontSize=25;" parent="1" vertex="1">
          <mxGeometry x="1770" y="1785" width="70" height="40" as="geometry" />
        </mxCell>
        <mxCell id="g0FRpj6m9xTWs_24U1S6-16" value="Will depend on approver what will happen(sometimes disapproval happens when some info on issue sheet is missing)" style="rounded=1;whiteSpace=wrap;html=1;" parent="1" vertex="1">
          <mxGeometry x="1930" y="1648.1200000000001" width="176.5" height="93.75" as="geometry" />
        </mxCell>
        <mxCell id="g0FRpj6m9xTWs_24U1S6-17" value="" style="endArrow=classic;html=1;rounded=0;exitX=1;exitY=0.5;exitDx=0;exitDy=0;entryX=0;entryY=0.5;entryDx=0;entryDy=0;" parent="1" source="g0FRpj6m9xTWs_24U1S6-13" target="g0FRpj6m9xTWs_24U1S6-16" edge="1">
          <mxGeometry width="50" height="50" relative="1" as="geometry">
            <mxPoint x="2276.5" y="1799.37" as="sourcePoint" />
            <mxPoint x="2346.5" y="1699.37" as="targetPoint" />
          </mxGeometry>
        </mxCell>
        <mxCell id="g0FRpj6m9xTWs_24U1S6-18" value="" style="edgeStyle=orthogonalEdgeStyle;rounded=0;orthogonalLoop=1;jettySize=auto;html=1;" parent="1" source="g0FRpj6m9xTWs_24U1S6-19" target="g0FRpj6m9xTWs_24U1S6-21" edge="1">
          <mxGeometry relative="1" as="geometry" />
        </mxCell>
        <mxCell id="g0FRpj6m9xTWs_24U1S6-19" value="ISD will create an Issue Sheet, fill necessary info, Attach the ss of helpdesk system with approved status, ss of email inquiry into detailed inquiry information and uploads to sharepoint" style="rounded=1;whiteSpace=wrap;html=1;" parent="1" vertex="1">
          <mxGeometry x="1440" y="1825" width="190" height="100" as="geometry" />
        </mxCell>
        <mxCell id="g0FRpj6m9xTWs_24U1S6-20" value="" style="edgeStyle=orthogonalEdgeStyle;rounded=0;orthogonalLoop=1;jettySize=auto;html=1;" parent="1" source="g0FRpj6m9xTWs_24U1S6-21" target="g0FRpj6m9xTWs_24U1S6-24" edge="1">
          <mxGeometry relative="1" as="geometry" />
        </mxCell>
        <mxCell id="g0FRpj6m9xTWs_24U1S6-21" value="&lt;div&gt;ISD member will contact ME-sui thru email (with attached issue sheet).&lt;/div&gt;&lt;div&gt;&amp;nbsp;EXAMPLE: above&lt;/div&gt;" style="rounded=1;whiteSpace=wrap;html=1;" parent="1" vertex="1">
          <mxGeometry x="1210" y="1830" width="190" height="90" as="geometry" />
        </mxCell>
        <mxCell id="g0FRpj6m9xTWs_24U1S6-22" value="[TIP IAxxx01] DISCREPANCY of EHDPRD VS WMS-FG(title)" style="text;html=1;align=center;verticalAlign=middle;resizable=0;points=[];autosize=1;strokeColor=none;fillColor=none;" parent="1" vertex="1">
          <mxGeometry x="1130" y="1800" width="350" height="30" as="geometry" />
        </mxCell>
        <mxCell id="g0FRpj6m9xTWs_24U1S6-23" value="" style="edgeStyle=orthogonalEdgeStyle;rounded=0;orthogonalLoop=1;jettySize=auto;html=1;" parent="1" source="g0FRpj6m9xTWs_24U1S6-24" target="g0FRpj6m9xTWs_24U1S6-27" edge="1">
          <mxGeometry relative="1" as="geometry" />
        </mxCell>
        <mxCell id="g0FRpj6m9xTWs_24U1S6-24" value="ME-Sui manager accepts the issue, Assign a PIC based on application module, update the Issue Control Sheet and reply thru email&lt;br&gt;EXAMPLE: below" style="rounded=1;whiteSpace=wrap;html=1;" parent="1" vertex="1">
          <mxGeometry x="1216.5" y="1980" width="177" height="90" as="geometry" />
        </mxCell>
        <mxCell id="g0FRpj6m9xTWs_24U1S6-25" value="[TIP IAxxx01] &amp;lt;Receipt&amp;gt; DISCREPANCY of EHDPRD VS WMS-FG(title)" style="text;html=1;align=center;verticalAlign=middle;resizable=0;points=[];autosize=1;strokeColor=none;fillColor=none;" parent="1" vertex="1">
          <mxGeometry x="1097" y="2070" width="410" height="30" as="geometry" />
        </mxCell>
        <mxCell id="g0FRpj6m9xTWs_24U1S6-26" value="" style="edgeStyle=orthogonalEdgeStyle;rounded=0;orthogonalLoop=1;jettySize=auto;html=1;" parent="1" source="g0FRpj6m9xTWs_24U1S6-27" target="g0FRpj6m9xTWs_24U1S6-29" edge="1">
          <mxGeometry relative="1" as="geometry" />
        </mxCell>
        <mxCell id="g0FRpj6m9xTWs_24U1S6-27" value="&amp;nbsp;The ME-sui PIC will start investigation or development/testing (depends)" style="rounded=1;whiteSpace=wrap;html=1;" parent="1" vertex="1">
          <mxGeometry x="1450" y="1990" width="170" height="70" as="geometry" />
        </mxCell>
        <mxCell id="g0FRpj6m9xTWs_24U1S6-28" value="" style="edgeStyle=orthogonalEdgeStyle;rounded=0;orthogonalLoop=1;jettySize=auto;html=1;" parent="1" source="g0FRpj6m9xTWs_24U1S6-29" target="g0FRpj6m9xTWs_24U1S6-32" edge="1">
          <mxGeometry relative="1" as="geometry" />
        </mxCell>
        <mxCell id="g0FRpj6m9xTWs_24U1S6-29" value="&lt;div&gt;The Me-sui PIC will update the issue sheet regarding the outcome of investigation, make a ss and attach to the issue sheet&lt;/div&gt;&lt;div&gt;&amp;nbsp; then upload it to sharepoint and reply to ISD thru email.&lt;/div&gt;&lt;div&gt;EXAMPLE: above&lt;/div&gt;" style="rounded=1;whiteSpace=wrap;html=1;" parent="1" vertex="1">
          <mxGeometry x="1665" y="1970" width="220" height="110" as="geometry" />
        </mxCell>
        <mxCell id="g0FRpj6m9xTWs_24U1S6-30" value="[TIP IAxxx01]&amp;nbsp;&amp;lt;Investigation Information&amp;gt; DISCREPANCY of EHDPRD VS WMS-FG(title)" style="text;whiteSpace=wrap;html=1;" parent="1" vertex="1">
          <mxGeometry x="1530" y="1945" width="490" height="40" as="geometry" />
        </mxCell>
        <mxCell id="g0FRpj6m9xTWs_24U1S6-31" value="" style="edgeStyle=orthogonalEdgeStyle;rounded=0;orthogonalLoop=1;jettySize=auto;html=1;" parent="1" source="g0FRpj6m9xTWs_24U1S6-32" target="g0FRpj6m9xTWs_24U1S6-34" edge="1">
          <mxGeometry relative="1" as="geometry" />
        </mxCell>
        <mxCell id="g0FRpj6m9xTWs_24U1S6-32" value="ISD confirms the result of investigation and response of ME-sui PIC (assumption:&amp;nbsp; checking if they got the expected result )" style="rounded=1;whiteSpace=wrap;html=1;" parent="1" vertex="1">
          <mxGeometry x="1930" y="1985" width="190" height="80" as="geometry" />
        </mxCell>
        <mxCell id="g0FRpj6m9xTWs_24U1S6-33" value="" style="edgeStyle=orthogonalEdgeStyle;rounded=0;orthogonalLoop=1;jettySize=auto;html=1;" parent="1" source="g0FRpj6m9xTWs_24U1S6-34" target="g0FRpj6m9xTWs_24U1S6-36" edge="1">
          <mxGeometry relative="1" as="geometry" />
        </mxCell>
        <mxCell id="g0FRpj6m9xTWs_24U1S6-34" value="&amp;nbsp;ISD will update issue sheet specifically the investigation information part, fill the cause category, cause, work around and countermeasure (depends on investigation result from Me-sui PIC)" style="rounded=1;whiteSpace=wrap;html=1;" parent="1" vertex="1">
          <mxGeometry x="1910" y="2130" width="230" height="130" as="geometry" />
        </mxCell>
        <mxCell id="g0FRpj6m9xTWs_24U1S6-35" value="" style="edgeStyle=orthogonalEdgeStyle;rounded=0;orthogonalLoop=1;jettySize=auto;html=1;" parent="1" source="g0FRpj6m9xTWs_24U1S6-36" target="g0FRpj6m9xTWs_24U1S6-39" edge="1">
          <mxGeometry relative="1" as="geometry" />
        </mxCell>
        <mxCell id="g0FRpj6m9xTWs_24U1S6-36" value="After updating, upload to SPO and reply thru email&lt;br&gt;EXAMPLE: below" style="rounded=1;whiteSpace=wrap;html=1;" parent="1" vertex="1">
          <mxGeometry x="1690" y="2160" width="170" height="70" as="geometry" />
        </mxCell>
        <mxCell id="g0FRpj6m9xTWs_24U1S6-37" value="RE:[TIP IAxxx01] &amp;lt;Investigation Infromation&amp;gt; DISCREPANCY of EHDPRD VS WMS-FG(title)" style="text;html=1;align=center;verticalAlign=middle;resizable=0;points=[];autosize=1;strokeColor=none;fillColor=none;" parent="1" vertex="1">
          <mxGeometry x="1485" y="2260" width="520" height="30" as="geometry" />
        </mxCell>
        <mxCell id="g0FRpj6m9xTWs_24U1S6-38" value="" style="edgeStyle=orthogonalEdgeStyle;rounded=0;orthogonalLoop=1;jettySize=auto;html=1;" parent="1" source="g0FRpj6m9xTWs_24U1S6-39" target="g0FRpj6m9xTWs_24U1S6-41" edge="1">
          <mxGeometry relative="1" as="geometry" />
        </mxCell>
        <mxCell id="g0FRpj6m9xTWs_24U1S6-39" value="&amp;nbsp;ME-sui PIC will proceed to the actual operation(execution of query script to db)" style="rounded=1;whiteSpace=wrap;html=1;" parent="1" vertex="1">
          <mxGeometry x="1460" y="2160" width="170" height="70" as="geometry" />
        </mxCell>
        <mxCell id="g0FRpj6m9xTWs_24U1S6-40" value="" style="edgeStyle=orthogonalEdgeStyle;rounded=0;orthogonalLoop=1;jettySize=auto;html=1;" parent="1" source="g0FRpj6m9xTWs_24U1S6-41" target="g0FRpj6m9xTWs_24U1S6-43" edge="1">
          <mxGeometry relative="1" as="geometry" />
        </mxCell>
        <mxCell id="g0FRpj6m9xTWs_24U1S6-41" value="&amp;nbsp; ME-sui PIC will update the actual operation page on issue sheet(ss of acutal operation)" style="rounded=1;whiteSpace=wrap;html=1;" parent="1" vertex="1">
          <mxGeometry x="1236.5" y="2157.5" width="163.5" height="75" as="geometry" />
        </mxCell>
        <mxCell id="g0FRpj6m9xTWs_24U1S6-42" value="" style="edgeStyle=orthogonalEdgeStyle;rounded=0;orthogonalLoop=1;jettySize=auto;html=1;" parent="1" source="g0FRpj6m9xTWs_24U1S6-43" target="g0FRpj6m9xTWs_24U1S6-46" edge="1">
          <mxGeometry relative="1" as="geometry" />
        </mxCell>
        <mxCell id="g0FRpj6m9xTWs_24U1S6-43" value="upload to SPO and Email ISD&lt;br&gt;EXAMPLE: below" style="rounded=1;whiteSpace=wrap;html=1;" parent="1" vertex="1">
          <mxGeometry x="1236.5" y="2310" width="163.5" height="75" as="geometry" />
        </mxCell>
        <mxCell id="g0FRpj6m9xTWs_24U1S6-44" value="[TIP IAxxx01] &amp;lt;Acual Operation&amp;gt; DISCREPANCY of EHDPRD VS WMS-FG(title)" style="text;html=1;align=center;verticalAlign=middle;resizable=0;points=[];autosize=1;strokeColor=none;fillColor=none;" parent="1" vertex="1">
          <mxGeometry x="1093.25" y="2408" width="450" height="30" as="geometry" />
        </mxCell>
        <mxCell id="g0FRpj6m9xTWs_24U1S6-45" value="" style="edgeStyle=orthogonalEdgeStyle;rounded=0;orthogonalLoop=1;jettySize=auto;html=1;" parent="1" source="g0FRpj6m9xTWs_24U1S6-46" target="g0FRpj6m9xTWs_24U1S6-110" edge="1">
          <mxGeometry relative="1" as="geometry" />
        </mxCell>
        <mxCell id="g0FRpj6m9xTWs_24U1S6-46" value="ISD confirms the results of investigation and response (maybe by checking the db if the data modified is aligned to the issue)" style="rounded=1;whiteSpace=wrap;html=1;" parent="1" vertex="1">
          <mxGeometry x="1460" y="2302.5" width="180" height="90" as="geometry" />
        </mxCell>
        <mxCell id="g0FRpj6m9xTWs_24U1S6-47" value="" style="edgeStyle=orthogonalEdgeStyle;rounded=0;orthogonalLoop=1;jettySize=auto;html=1;" parent="1" source="g0FRpj6m9xTWs_24U1S6-48" target="g0FRpj6m9xTWs_24U1S6-50" edge="1">
          <mxGeometry relative="1" as="geometry" />
        </mxCell>
        <mxCell id="g0FRpj6m9xTWs_24U1S6-48" value="Reply to Me-Sui that the issue is closed&lt;br&gt;EXAMPLE: below" style="rounded=1;whiteSpace=wrap;html=1;" parent="1" vertex="1">
          <mxGeometry x="2106.5" y="2310" width="163.5" height="75" as="geometry" />
        </mxCell>
        <mxCell id="g0FRpj6m9xTWs_24U1S6-49" value="[TIP IAxxx01] &amp;lt;Close&amp;gt; DISCREPANCY of EHDPRD VS WMS-FG(title)&amp;nbsp;" style="text;html=1;align=center;verticalAlign=middle;resizable=0;points=[];autosize=1;strokeColor=none;fillColor=none;" parent="1" vertex="1">
          <mxGeometry x="1988.25" y="2438" width="400" height="30" as="geometry" />
        </mxCell>
        <mxCell id="g0FRpj6m9xTWs_24U1S6-50" value="END" style="ellipse;whiteSpace=wrap;html=1;" parent="1" vertex="1">
          <mxGeometry x="2330" y="2307.5" width="120" height="80" as="geometry" />
        </mxCell>
        <mxCell id="g0FRpj6m9xTWs_24U1S6-51" value="" style="endArrow=none;html=1;rounded=0;entryX=0.5;entryY=1;entryDx=0;entryDy=0;exitX=0.556;exitY=0.053;exitDx=0;exitDy=0;exitPerimeter=0;" parent="1" source="g0FRpj6m9xTWs_24U1S6-37" target="g0FRpj6m9xTWs_24U1S6-36" edge="1">
          <mxGeometry width="50" height="50" relative="1" as="geometry">
            <mxPoint x="1720" y="2600" as="sourcePoint" />
            <mxPoint x="1770" y="2550" as="targetPoint" />
          </mxGeometry>
        </mxCell>
        <mxCell id="g0FRpj6m9xTWs_24U1S6-52" value="" style="endArrow=none;html=1;rounded=0;entryX=0.5;entryY=1;entryDx=0;entryDy=0;" parent="1" source="g0FRpj6m9xTWs_24U1S6-49" target="g0FRpj6m9xTWs_24U1S6-48" edge="1">
          <mxGeometry width="50" height="50" relative="1" as="geometry">
            <mxPoint x="1780" y="2640" as="sourcePoint" />
            <mxPoint x="1830" y="2590" as="targetPoint" />
          </mxGeometry>
        </mxCell>
        <mxCell id="g0FRpj6m9xTWs_24U1S6-53" value="&lt;span style=&quot;color: rgb(0, 0, 0); font-family: Helvetica; font-size: 25px; font-style: normal; font-variant-ligatures: normal; font-variant-caps: normal; font-weight: 400; letter-spacing: normal; orphans: 2; text-align: center; text-indent: 0px; text-transform: none; widows: 2; word-spacing: 0px; -webkit-text-stroke-width: 0px; background-color: rgb(251, 251, 251); text-decoration-thickness: initial; text-decoration-style: initial; text-decoration-color: initial; float: none; display: inline !important;&quot;&gt;If IB (Japan)&lt;/span&gt;" style="text;whiteSpace=wrap;html=1;" parent="1" vertex="1">
          <mxGeometry x="970" y="1639" width="147.5" height="50" as="geometry" />
        </mxCell>
        <mxCell id="g0FRpj6m9xTWs_24U1S6-54" value="" style="edgeStyle=orthogonalEdgeStyle;rounded=0;orthogonalLoop=1;jettySize=auto;html=1;" parent="1" source="g0FRpj6m9xTWs_24U1S6-56" target="g0FRpj6m9xTWs_24U1S6-59" edge="1">
          <mxGeometry relative="1" as="geometry" />
        </mxCell>
        <mxCell id="g0FRpj6m9xTWs_24U1S6-55" value="" style="edgeStyle=orthogonalEdgeStyle;rounded=0;orthogonalLoop=1;jettySize=auto;html=1;" parent="1" source="g0FRpj6m9xTWs_24U1S6-56" target="g0FRpj6m9xTWs_24U1S6-62" edge="1">
          <mxGeometry relative="1" as="geometry" />
        </mxCell>
        <mxCell id="g0FRpj6m9xTWs_24U1S6-56" value="Is it recovery or &lt;br&gt;program development/testing&amp;nbsp;" style="rhombus;whiteSpace=wrap;html=1;" parent="1" vertex="1">
          <mxGeometry x="750" y="1600" width="235" height="190" as="geometry" />
        </mxCell>
        <mxCell id="g0FRpj6m9xTWs_24U1S6-57" value="&lt;span style=&quot;color: rgb(0, 0, 0); font-family: Helvetica; font-size: 25px; font-style: normal; font-variant-ligatures: normal; font-variant-caps: normal; font-weight: 400; letter-spacing: normal; orphans: 2; text-align: center; text-indent: 0px; text-transform: none; widows: 2; word-spacing: 0px; -webkit-text-stroke-width: 0px; background-color: rgb(251, 251, 251); text-decoration-thickness: initial; text-decoration-style: initial; text-decoration-color: initial; float: none; display: inline !important;&quot;&gt;If Recovery&amp;nbsp;&lt;/span&gt;" style="text;whiteSpace=wrap;html=1;" parent="1" vertex="1">
          <mxGeometry x="874" y="1800" width="153" height="40" as="geometry" />
        </mxCell>
        <mxCell id="g0FRpj6m9xTWs_24U1S6-58" value="" style="edgeStyle=orthogonalEdgeStyle;rounded=0;orthogonalLoop=1;jettySize=auto;html=1;" parent="1" source="g0FRpj6m9xTWs_24U1S6-59" target="g0FRpj6m9xTWs_24U1S6-64" edge="1">
          <mxGeometry relative="1" as="geometry" />
        </mxCell>
        <mxCell id="g0FRpj6m9xTWs_24U1S6-59" value="&lt;div&gt;Me-sui will start recovery investigation&lt;/div&gt;" style="rounded=1;whiteSpace=wrap;html=1;" parent="1" vertex="1">
          <mxGeometry x="772.5" y="1880" width="190" height="90" as="geometry" />
        </mxCell>
        <mxCell id="g0FRpj6m9xTWs_24U1S6-60" value="&lt;span style=&quot;color: rgb(0, 0, 0); font-family: Helvetica; font-size: 25px; font-style: normal; font-variant-ligatures: normal; font-variant-caps: normal; font-weight: 400; letter-spacing: normal; orphans: 2; text-align: center; text-indent: 0px; text-transform: none; widows: 2; word-spacing: 0px; -webkit-text-stroke-width: 0px; background-color: rgb(251, 251, 251); text-decoration-thickness: initial; text-decoration-style: initial; text-decoration-color: initial; float: none; display: inline !important;&quot;&gt;If program dev/testing&lt;/span&gt;" style="text;whiteSpace=wrap;html=1;" parent="1" vertex="1">
          <mxGeometry x="660" y="1590" width="123" height="65" as="geometry" />
        </mxCell>
        <mxCell id="g0FRpj6m9xTWs_24U1S6-61" value="" style="edgeStyle=orthogonalEdgeStyle;rounded=0;orthogonalLoop=1;jettySize=auto;html=1;" parent="1" source="g0FRpj6m9xTWs_24U1S6-62" target="g0FRpj6m9xTWs_24U1S6-80" edge="1">
          <mxGeometry relative="1" as="geometry" />
        </mxCell>
        <mxCell id="g0FRpj6m9xTWs_24U1S6-62" value="&lt;div&gt;Me-sui will start program development/testing&lt;/div&gt;" style="rounded=1;whiteSpace=wrap;html=1;" parent="1" vertex="1">
          <mxGeometry x="470" y="1650" width="190" height="90" as="geometry" />
        </mxCell>
        <mxCell id="g0FRpj6m9xTWs_24U1S6-63" value="" style="edgeStyle=orthogonalEdgeStyle;rounded=0;orthogonalLoop=1;jettySize=auto;html=1;" parent="1" source="g0FRpj6m9xTWs_24U1S6-64" target="g0FRpj6m9xTWs_24U1S6-66" edge="1">
          <mxGeometry relative="1" as="geometry" />
        </mxCell>
        <mxCell id="g0FRpj6m9xTWs_24U1S6-64" value="&lt;div&gt;&amp;nbsp;&lt;/div&gt;when the ME-sui PIC request,&lt;div&gt;ME-sui manager will&amp;nbsp; provide&amp;nbsp; issue number and update the issue sheet&amp;nbsp; &amp;nbsp;&lt;/div&gt;" style="rounded=1;whiteSpace=wrap;html=1;" parent="1" vertex="1">
          <mxGeometry x="550" y="1880" width="190" height="90" as="geometry" />
        </mxCell>
        <mxCell id="g0FRpj6m9xTWs_24U1S6-65" value="" style="edgeStyle=orthogonalEdgeStyle;rounded=0;orthogonalLoop=1;jettySize=auto;html=1;" parent="1" source="g0FRpj6m9xTWs_24U1S6-66" target="g0FRpj6m9xTWs_24U1S6-68" edge="1">
          <mxGeometry relative="1" as="geometry" />
        </mxCell>
        <mxCell id="g0FRpj6m9xTWs_24U1S6-66" value="ME-sui&amp;nbsp; PIC will do and update the detailed inquiry sheet and detailed investigation sheet&amp;nbsp;" style="rounded=1;whiteSpace=wrap;html=1;" parent="1" vertex="1">
          <mxGeometry x="550" y="2030" width="190" height="90" as="geometry" />
        </mxCell>
        <mxCell id="g0FRpj6m9xTWs_24U1S6-67" style="edgeStyle=orthogonalEdgeStyle;rounded=0;orthogonalLoop=1;jettySize=auto;html=1;entryX=1;entryY=0.5;entryDx=0;entryDy=0;" parent="1" source="g0FRpj6m9xTWs_24U1S6-68" target="g0FRpj6m9xTWs_24U1S6-71" edge="1">
          <mxGeometry relative="1" as="geometry">
            <Array as="points">
              <mxPoint x="1005" y="2080" />
              <mxPoint x="1005" y="2215" />
            </Array>
          </mxGeometry>
        </mxCell>
        <mxCell id="g0FRpj6m9xTWs_24U1S6-68" value="After updating, ME- sui PIC uploads file and send an email to ISD&lt;br&gt;EXAMPLE: Below" style="rounded=1;whiteSpace=wrap;html=1;" parent="1" vertex="1">
          <mxGeometry x="795" y="2030" width="190" height="90" as="geometry" />
        </mxCell>
        <mxCell id="g0FRpj6m9xTWs_24U1S6-69" value="[TIP IB00003] Recovery of ASN" style="text;html=1;align=center;verticalAlign=middle;resizable=0;points=[];autosize=1;strokeColor=none;fillColor=none;" parent="1" vertex="1">
          <mxGeometry x="800" y="2120" width="190" height="30" as="geometry" />
        </mxCell>
        <mxCell id="g0FRpj6m9xTWs_24U1S6-70" value="" style="edgeStyle=orthogonalEdgeStyle;rounded=0;orthogonalLoop=1;jettySize=auto;html=1;" parent="1" source="g0FRpj6m9xTWs_24U1S6-71" target="g0FRpj6m9xTWs_24U1S6-73" edge="1">
          <mxGeometry relative="1" as="geometry" />
        </mxCell>
        <mxCell id="g0FRpj6m9xTWs_24U1S6-71" value="ISD will get the issue sheet and check the survey results&lt;br&gt;(dont know what is that)" style="rounded=1;whiteSpace=wrap;html=1;" parent="1" vertex="1">
          <mxGeometry x="795" y="2170" width="190" height="90" as="geometry" />
        </mxCell>
        <mxCell id="g0FRpj6m9xTWs_24U1S6-72" value="" style="edgeStyle=orthogonalEdgeStyle;rounded=0;orthogonalLoop=1;jettySize=auto;html=1;" parent="1" source="g0FRpj6m9xTWs_24U1S6-73" target="g0FRpj6m9xTWs_24U1S6-75" edge="1">
          <mxGeometry relative="1" as="geometry" />
        </mxCell>
        <mxCell id="g0FRpj6m9xTWs_24U1S6-73" value="ISD will go to helpdesk system,&lt;br&gt;fill data required(details of request, requestor initial analysis, approver, etc.) and wait for approval" style="rounded=1;whiteSpace=wrap;html=1;" parent="1" vertex="1">
          <mxGeometry x="550" y="2170" width="190" height="90" as="geometry" />
        </mxCell>
        <mxCell id="g0FRpj6m9xTWs_24U1S6-74" value="" style="edgeStyle=orthogonalEdgeStyle;rounded=0;orthogonalLoop=1;jettySize=auto;html=1;" parent="1" source="g0FRpj6m9xTWs_24U1S6-75" target="g0FRpj6m9xTWs_24U1S6-77" edge="1">
          <mxGeometry relative="1" as="geometry" />
        </mxCell>
        <mxCell id="g0FRpj6m9xTWs_24U1S6-75" value="ISD will attach the ss of helpdesk system with approval status in issue sheet" style="rounded=1;whiteSpace=wrap;html=1;" parent="1" vertex="1">
          <mxGeometry x="550" y="2310" width="190" height="90" as="geometry" />
        </mxCell>
        <mxCell id="g0FRpj6m9xTWs_24U1S6-76" style="edgeStyle=orthogonalEdgeStyle;rounded=0;orthogonalLoop=1;jettySize=auto;html=1;entryX=1;entryY=0.5;entryDx=0;entryDy=0;" parent="1" source="g0FRpj6m9xTWs_24U1S6-77" target="g0FRpj6m9xTWs_24U1S6-87" edge="1">
          <mxGeometry relative="1" as="geometry">
            <Array as="points">
              <mxPoint x="1010" y="2355" />
              <mxPoint x="1010" y="2505" />
            </Array>
          </mxGeometry>
        </mxCell>
        <mxCell id="g0FRpj6m9xTWs_24U1S6-77" value="ISD upload the file to SPO and reply to ME-sui&lt;br&gt;EXAMPLE: below" style="rounded=1;whiteSpace=wrap;html=1;" parent="1" vertex="1">
          <mxGeometry x="795" y="2310" width="195" height="90" as="geometry" />
        </mxCell>
        <mxCell id="g0FRpj6m9xTWs_24U1S6-78" value="Re:[TIP IB00003] Recovery of ASN" style="text;html=1;align=center;verticalAlign=middle;resizable=0;points=[];autosize=1;strokeColor=none;fillColor=none;" parent="1" vertex="1">
          <mxGeometry x="787.5" y="2400" width="210" height="30" as="geometry" />
        </mxCell>
        <mxCell id="g0FRpj6m9xTWs_24U1S6-79" value="" style="edgeStyle=orthogonalEdgeStyle;rounded=0;orthogonalLoop=1;jettySize=auto;html=1;" parent="1" source="g0FRpj6m9xTWs_24U1S6-80" target="g0FRpj6m9xTWs_24U1S6-82" edge="1">
          <mxGeometry relative="1" as="geometry" />
        </mxCell>
        <mxCell id="g0FRpj6m9xTWs_24U1S6-80" value="&lt;div&gt;User agreement testing results and timing of program application will be adjusted in ME-sui and ISD&lt;/div&gt;" style="rounded=1;whiteSpace=wrap;html=1;" parent="1" vertex="1">
          <mxGeometry x="224" y="1650" width="190" height="90" as="geometry" />
        </mxCell>
        <mxCell id="g0FRpj6m9xTWs_24U1S6-81" style="edgeStyle=orthogonalEdgeStyle;rounded=0;orthogonalLoop=1;jettySize=auto;html=1;entryX=0;entryY=0.5;entryDx=0;entryDy=0;" parent="1" source="g0FRpj6m9xTWs_24U1S6-82" target="g0FRpj6m9xTWs_24U1S6-85" edge="1">
          <mxGeometry relative="1" as="geometry">
            <Array as="points">
              <mxPoint x="-50" y="1695" />
              <mxPoint x="-50" y="1855" />
            </Array>
          </mxGeometry>
        </mxCell>
        <mxCell id="g0FRpj6m9xTWs_24U1S6-82" value="&lt;div&gt;ME-sui will email to ISD&lt;/div&gt;&lt;div&gt;EXAMPLE: above&lt;/div&gt;" style="rounded=1;whiteSpace=wrap;html=1;" parent="1" vertex="1">
          <mxGeometry x="-30" y="1650" width="190" height="90" as="geometry" />
        </mxCell>
        <mxCell id="g0FRpj6m9xTWs_24U1S6-83" value="[TIP IB00006]&amp;lt;Investigation Information&amp;gt; Modification bug-fix of SR creation" style="text;html=1;align=center;verticalAlign=middle;resizable=0;points=[];autosize=1;strokeColor=none;fillColor=none;" parent="1" vertex="1">
          <mxGeometry x="-130" y="1618.12" width="430" height="30" as="geometry" />
        </mxCell>
        <mxCell id="g0FRpj6m9xTWs_24U1S6-84" value="" style="edgeStyle=orthogonalEdgeStyle;rounded=0;orthogonalLoop=1;jettySize=auto;html=1;" parent="1" source="g0FRpj6m9xTWs_24U1S6-85" target="g0FRpj6m9xTWs_24U1S6-91" edge="1">
          <mxGeometry relative="1" as="geometry" />
        </mxCell>
        <mxCell id="g0FRpj6m9xTWs_24U1S6-85" value="&lt;div&gt;The ME-sui PIC will update the PP and MR in the issue sheet and upload to SPO&lt;/div&gt;" style="rounded=1;whiteSpace=wrap;html=1;" parent="1" vertex="1">
          <mxGeometry x="-20" y="1810" width="190" height="90" as="geometry" />
        </mxCell>
        <mxCell id="g0FRpj6m9xTWs_24U1S6-86" style="edgeStyle=orthogonalEdgeStyle;rounded=0;orthogonalLoop=1;jettySize=auto;html=1;entryX=1;entryY=0.5;entryDx=0;entryDy=0;" parent="1" source="g0FRpj6m9xTWs_24U1S6-87" target="g0FRpj6m9xTWs_24U1S6-89" edge="1">
          <mxGeometry relative="1" as="geometry" />
        </mxCell>
        <mxCell id="g0FRpj6m9xTWs_24U1S6-87" value="&lt;div&gt;&amp;nbsp;ME-sui PIC will start to do and update&amp;nbsp;&amp;nbsp;&lt;/div&gt;Actual Operation in issue sheet&lt;div&gt;&amp;nbsp;and upload the file to SPO&lt;/div&gt;" style="rounded=1;whiteSpace=wrap;html=1;" parent="1" vertex="1">
          <mxGeometry x="800" y="2460" width="190" height="90" as="geometry" />
        </mxCell>
        <mxCell id="g0FRpj6m9xTWs_24U1S6-88" style="edgeStyle=orthogonalEdgeStyle;rounded=0;orthogonalLoop=1;jettySize=auto;html=1;entryX=0;entryY=0.5;entryDx=0;entryDy=0;" parent="1" source="g0FRpj6m9xTWs_24U1S6-89" target="g0FRpj6m9xTWs_24U1S6-95" edge="1">
          <mxGeometry relative="1" as="geometry">
            <Array as="points">
              <mxPoint x="100" y="2505" />
              <mxPoint x="100" y="2675" />
            </Array>
          </mxGeometry>
        </mxCell>
        <mxCell id="g0FRpj6m9xTWs_24U1S6-89" value="&lt;div&gt;After updating and uploading the issue sheet, ME-sui PIC will reply to ISD&lt;/div&gt;&lt;div&gt;EXAMPLE: below&amp;nbsp;&amp;nbsp;&lt;/div&gt;" style="rounded=1;whiteSpace=wrap;html=1;" parent="1" vertex="1">
          <mxGeometry x="224" y="2460" width="190" height="90" as="geometry" />
        </mxCell>
        <mxCell id="g0FRpj6m9xTWs_24U1S6-90" style="edgeStyle=orthogonalEdgeStyle;rounded=0;orthogonalLoop=1;jettySize=auto;html=1;entryX=0.5;entryY=0;entryDx=0;entryDy=0;" parent="1" source="g0FRpj6m9xTWs_24U1S6-91" target="g0FRpj6m9xTWs_24U1S6-89" edge="1">
          <mxGeometry relative="1" as="geometry" />
        </mxCell>
        <mxCell id="g0FRpj6m9xTWs_24U1S6-91" value="&lt;div&gt;&amp;nbsp;ME-sui PIC will do and update&amp;nbsp;&amp;nbsp;&lt;/div&gt;Actual Operation in issue sheet and update PP and MR and create PDF files&amp;nbsp;&amp;nbsp;and upload the file to SPO" style="rounded=1;whiteSpace=wrap;html=1;" parent="1" vertex="1">
          <mxGeometry x="224" y="1810" width="190" height="90" as="geometry" />
        </mxCell>
        <mxCell id="g0FRpj6m9xTWs_24U1S6-92" value="[TIP IB00003]&amp;lt;Actual Operation&amp;gt; Recovery of ASN" style="text;html=1;align=center;verticalAlign=middle;resizable=0;points=[];autosize=1;strokeColor=none;fillColor=none;" parent="1" vertex="1">
          <mxGeometry x="180" y="2550" width="290" height="30" as="geometry" />
        </mxCell>
        <mxCell id="g0FRpj6m9xTWs_24U1S6-93" value="&amp;nbsp;[TIP IB00006]&amp;lt;Actual Operation&amp;gt; Modification bug-fix of SR creation" style="text;html=1;align=center;verticalAlign=middle;resizable=0;points=[];autosize=1;strokeColor=none;fillColor=none;" parent="1" vertex="1">
          <mxGeometry x="110" y="2580" width="390" height="30" as="geometry" />
        </mxCell>
        <mxCell id="g0FRpj6m9xTWs_24U1S6-94" value="" style="edgeStyle=orthogonalEdgeStyle;rounded=0;orthogonalLoop=1;jettySize=auto;html=1;entryX=0;entryY=0.5;entryDx=0;entryDy=0;" parent="1" source="g0FRpj6m9xTWs_24U1S6-95" target="g0FRpj6m9xTWs_24U1S6-99" edge="1">
          <mxGeometry relative="1" as="geometry">
            <mxPoint x="499.99999999999955" y="2675" as="targetPoint" />
          </mxGeometry>
        </mxCell>
        <mxCell id="g0FRpj6m9xTWs_24U1S6-95" value="ISD will confirm the results of investigation and response, after confirmation, reply to ME-sui it is OK to close&lt;br style=&quot;border-color: var(--border-color);&quot;&gt;EXAMPLE: below" style="rounded=1;whiteSpace=wrap;html=1;" parent="1" vertex="1">
          <mxGeometry x="200" y="2630" width="190" height="90" as="geometry" />
        </mxCell>
        <mxCell id="g0FRpj6m9xTWs_24U1S6-96" value="Re:[TIP IB00003]&amp;lt;Actual Operation&amp;gt; Recovery of ASN" style="text;html=1;align=center;verticalAlign=middle;resizable=0;points=[];autosize=1;strokeColor=none;fillColor=none;" parent="1" vertex="1">
          <mxGeometry x="150" y="2720" width="310" height="30" as="geometry" />
        </mxCell>
        <mxCell id="g0FRpj6m9xTWs_24U1S6-97" value="Re:[TIP IB00006]&amp;lt;Actual Operation&amp;gt; Modification bug-fix of SR creation" style="text;html=1;align=center;verticalAlign=middle;resizable=0;points=[];autosize=1;strokeColor=none;fillColor=none;" parent="1" vertex="1">
          <mxGeometry x="80" y="2740" width="400" height="30" as="geometry" />
        </mxCell>
        <mxCell id="g0FRpj6m9xTWs_24U1S6-98" style="edgeStyle=orthogonalEdgeStyle;rounded=0;orthogonalLoop=1;jettySize=auto;html=1;entryX=0;entryY=0.5;entryDx=0;entryDy=0;" parent="1" source="g0FRpj6m9xTWs_24U1S6-99" target="g0FRpj6m9xTWs_24U1S6-104" edge="1">
          <mxGeometry relative="1" as="geometry" />
        </mxCell>
        <mxCell id="g0FRpj6m9xTWs_24U1S6-99" value="Me-sui PIC will update the status of issue sheet to close, upload the file to SPO and reply to ISD&amp;nbsp;&amp;nbsp;&lt;br&gt;EXAMPLE: below" style="rounded=1;whiteSpace=wrap;html=1;" parent="1" vertex="1">
          <mxGeometry x="510" y="2630" width="190" height="90" as="geometry" />
        </mxCell>
        <mxCell id="g0FRpj6m9xTWs_24U1S6-100" value="&lt;font style=&quot;font-size: 27px;&quot;&gt;Legal Way&lt;/font&gt;" style="text;html=1;align=center;verticalAlign=middle;resizable=0;points=[];autosize=1;strokeColor=none;fillColor=none;" parent="1" vertex="1">
          <mxGeometry x="1092" y="1440" width="150" height="50" as="geometry" />
        </mxCell>
        <mxCell id="g0FRpj6m9xTWs_24U1S6-101" value="[TIP IB00003]&lt;Close&gt; Recovery of ASN" style="text;whiteSpace=wrap;html=1;" parent="1" vertex="1">
          <mxGeometry x="515" y="2788" width="185" height="20" as="geometry" />
        </mxCell>
        <mxCell id="g0FRpj6m9xTWs_24U1S6-102" value="&amp;nbsp;[TIP IB00006]&amp;lt;Close&amp;gt; Modification bug-fix of SR creation" style="text;html=1;align=center;verticalAlign=middle;resizable=0;points=[];autosize=1;strokeColor=none;fillColor=none;" parent="1" vertex="1">
          <mxGeometry x="440" y="2808" width="330" height="30" as="geometry" />
        </mxCell>
        <mxCell id="g0FRpj6m9xTWs_24U1S6-103" value="" style="endArrow=none;html=1;rounded=0;entryX=0.5;entryY=1;entryDx=0;entryDy=0;exitX=0.5;exitY=0;exitDx=0;exitDy=0;" parent="1" source="g0FRpj6m9xTWs_24U1S6-101" target="g0FRpj6m9xTWs_24U1S6-99" edge="1">
          <mxGeometry width="50" height="50" relative="1" as="geometry">
            <mxPoint x="580" y="2798" as="sourcePoint" />
            <mxPoint x="630" y="2748" as="targetPoint" />
          </mxGeometry>
        </mxCell>
        <mxCell id="g0FRpj6m9xTWs_24U1S6-104" value="END" style="ellipse;whiteSpace=wrap;html=1;" parent="1" vertex="1">
          <mxGeometry x="800" y="2635" width="120" height="80" as="geometry" />
        </mxCell>
        <mxCell id="g0FRpj6m9xTWs_24U1S6-105" value="" style="endArrow=none;html=1;rounded=0;entryX=0.5;entryY=1;entryDx=0;entryDy=0;exitX=0.496;exitY=0.017;exitDx=0;exitDy=0;exitPerimeter=0;" parent="1" source="g0FRpj6m9xTWs_24U1S6-44" target="g0FRpj6m9xTWs_24U1S6-43" edge="1">
          <mxGeometry width="50" height="50" relative="1" as="geometry">
            <mxPoint x="1120" y="2350" as="sourcePoint" />
            <mxPoint x="1170" y="2300" as="targetPoint" />
          </mxGeometry>
        </mxCell>
        <mxCell id="g0FRpj6m9xTWs_24U1S6-106" value="&lt;font style=&quot;font-size: 16px;&quot;&gt;PIC- Person In Charge&lt;/font&gt;" style="text;html=1;align=center;verticalAlign=middle;resizable=0;points=[];autosize=1;strokeColor=none;fillColor=none;" parent="1" vertex="1">
          <mxGeometry x="1242" y="1560" width="190" height="30" as="geometry" />
        </mxCell>
        <mxCell id="g0FRpj6m9xTWs_24U1S6-107" value="&lt;span style=&quot;font-size: 16px;&quot;&gt;SPO - Share Point&lt;/span&gt;" style="text;html=1;align=center;verticalAlign=middle;resizable=0;points=[];autosize=1;strokeColor=none;fillColor=none;" parent="1" vertex="1">
          <mxGeometry x="1256" y="1590" width="160" height="30" as="geometry" />
        </mxCell>
        <mxCell id="g0FRpj6m9xTWs_24U1S6-108" value="updated&amp;nbsp; helpdesk(completed status) and updates status&amp;nbsp; then move to completed folder" style="text;html=1;align=center;verticalAlign=middle;resizable=0;points=[];autosize=1;strokeColor=none;fillColor=none;" parent="1" vertex="1">
          <mxGeometry x="1164" y="2670" width="490" height="30" as="geometry" />
        </mxCell>
        <mxCell id="g0FRpj6m9xTWs_24U1S6-109" value="" style="edgeStyle=orthogonalEdgeStyle;rounded=0;orthogonalLoop=1;jettySize=auto;html=1;" parent="1" source="g0FRpj6m9xTWs_24U1S6-110" target="g0FRpj6m9xTWs_24U1S6-112" edge="1">
          <mxGeometry relative="1" as="geometry" />
        </mxCell>
        <mxCell id="g0FRpj6m9xTWs_24U1S6-110" value="After confirming,&amp;nbsp;ISD updates the Issue sheet status to close&lt;br&gt;&amp;nbsp;and updates the Issue sheet with ss of helpdesk system with completed status&amp;nbsp;" style="rounded=1;whiteSpace=wrap;html=1;" parent="1" vertex="1">
          <mxGeometry x="1675.5" y="2297.5" width="200" height="100" as="geometry" />
        </mxCell>
        <mxCell id="g0FRpj6m9xTWs_24U1S6-111" value="" style="edgeStyle=orthogonalEdgeStyle;rounded=0;orthogonalLoop=1;jettySize=auto;html=1;" parent="1" source="g0FRpj6m9xTWs_24U1S6-112" target="g0FRpj6m9xTWs_24U1S6-48" edge="1">
          <mxGeometry relative="1" as="geometry" />
        </mxCell>
        <mxCell id="g0FRpj6m9xTWs_24U1S6-112" value="&amp;nbsp;ISD upload issue sheet to SPO and move it to &quot;Completed&quot; folder" style="rounded=1;whiteSpace=wrap;html=1;" parent="1" vertex="1">
          <mxGeometry x="1910" y="2310" width="163.5" height="75" as="geometry" />
        </mxCell>
        <mxCell id="6zvV-r1F8-ObMhPHFeh8-8" value="" style="edgeStyle=orthogonalEdgeStyle;rounded=0;orthogonalLoop=1;jettySize=auto;html=1;" parent="1" source="g0FRpj6m9xTWs_24U1S6-113" target="6zvV-r1F8-ObMhPHFeh8-7" edge="1">
          <mxGeometry relative="1" as="geometry" />
        </mxCell>
        <mxCell id="g0FRpj6m9xTWs_24U1S6-113" value="The user MUST create an account&amp;nbsp;" style="rounded=1;whiteSpace=wrap;html=1;" parent="1" vertex="1">
          <mxGeometry x="220" y="455" width="190" height="90" as="geometry" />
        </mxCell>
        <mxCell id="Ud5PRaO0Ma-dnYLYnf0o-6" value="" style="edgeStyle=orthogonalEdgeStyle;rounded=0;orthogonalLoop=1;jettySize=auto;html=1;entryX=0.5;entryY=0;entryDx=0;entryDy=0;" edge="1" parent="1" source="6zvV-r1F8-ObMhPHFeh8-2" target="Ud5PRaO0Ma-dnYLYnf0o-7">
          <mxGeometry relative="1" as="geometry">
            <mxPoint x="30" y="830" as="targetPoint" />
          </mxGeometry>
        </mxCell>
        <mxCell id="6zvV-r1F8-ObMhPHFeh8-2" value="Log-in" style="rounded=1;whiteSpace=wrap;html=1;" parent="1" vertex="1">
          <mxGeometry x="-65" y="670" width="190" height="90" as="geometry" />
        </mxCell>
        <mxCell id="6zvV-r1F8-ObMhPHFeh8-4" value="E-COMMERCE (order processing)" style="text;html=1;align=center;verticalAlign=middle;resizable=0;points=[];autosize=1;strokeColor=none;fillColor=none;" parent="1" vertex="1">
          <mxGeometry x="325" y="60" width="210" height="30" as="geometry" />
        </mxCell>
        <mxCell id="6zvV-r1F8-ObMhPHFeh8-17" value="" style="edgeStyle=orthogonalEdgeStyle;rounded=0;orthogonalLoop=1;jettySize=auto;html=1;" parent="1" source="6zvV-r1F8-ObMhPHFeh8-7" target="6zvV-r1F8-ObMhPHFeh8-2" edge="1">
          <mxGeometry relative="1" as="geometry" />
        </mxCell>
        <mxCell id="6zvV-r1F8-ObMhPHFeh8-7" value="MyCustomers DB&lt;br&gt;customer credentials" style="shape=cylinder3;whiteSpace=wrap;html=1;boundedLbl=1;backgroundOutline=1;size=15;" parent="1" vertex="1">
          <mxGeometry x="220" y="675" width="190" height="80" as="geometry" />
        </mxCell>
        <mxCell id="6zvV-r1F8-ObMhPHFeh8-12" value="" style="edgeStyle=orthogonalEdgeStyle;rounded=0;orthogonalLoop=1;jettySize=auto;html=1;" parent="1" source="6zvV-r1F8-ObMhPHFeh8-10" target="g0FRpj6m9xTWs_24U1S6-113" edge="1">
          <mxGeometry relative="1" as="geometry" />
        </mxCell>
        <mxCell id="6zvV-r1F8-ObMhPHFeh8-14" value="" style="edgeStyle=orthogonalEdgeStyle;rounded=0;orthogonalLoop=1;jettySize=auto;html=1;" parent="1" source="6zvV-r1F8-ObMhPHFeh8-10" target="6zvV-r1F8-ObMhPHFeh8-2" edge="1">
          <mxGeometry relative="1" as="geometry" />
        </mxCell>
        <mxCell id="6zvV-r1F8-ObMhPHFeh8-10" value="Does customer have an&lt;br&gt;&amp;nbsp;account?" style="rhombus;whiteSpace=wrap;html=1;" parent="1" vertex="1">
          <mxGeometry x="-60" y="410" width="180" height="180" as="geometry" />
        </mxCell>
        <mxCell id="6zvV-r1F8-ObMhPHFeh8-13" value="&lt;font style=&quot;font-size: 26px;&quot;&gt;NO&lt;/font&gt;" style="text;html=1;align=center;verticalAlign=middle;resizable=0;points=[];autosize=1;strokeColor=none;fillColor=none;" parent="1" vertex="1">
          <mxGeometry x="140" y="455" width="60" height="40" as="geometry" />
        </mxCell>
        <mxCell id="6zvV-r1F8-ObMhPHFeh8-15" value="&lt;font style=&quot;font-size: 26px;&quot;&gt;YES&lt;/font&gt;" style="text;html=1;align=center;verticalAlign=middle;resizable=0;points=[];autosize=1;strokeColor=none;fillColor=none;" parent="1" vertex="1">
          <mxGeometry x="25" y="600" width="80" height="40" as="geometry" />
        </mxCell>
        <mxCell id="Ud5PRaO0Ma-dnYLYnf0o-1" value="&lt;font style=&quot;font-size: 20px;&quot;&gt;E-COMMERCE&lt;/font&gt;" style="text;html=1;align=center;verticalAlign=middle;resizable=0;points=[];autosize=1;strokeColor=none;fillColor=none;" vertex="1" parent="1">
          <mxGeometry x="-50" y="200" width="160" height="40" as="geometry" />
        </mxCell>
        <mxCell id="Ud5PRaO0Ma-dnYLYnf0o-3" value="User will select Items, quantity, size&amp;nbsp;" style="rounded=1;whiteSpace=wrap;html=1;" vertex="1" parent="1">
          <mxGeometry x="-65" y="1030" width="190" height="90" as="geometry" />
        </mxCell>
        <mxCell id="Ud5PRaO0Ma-dnYLYnf0o-4" value="&lt;font style=&quot;font-size: 20px;&quot;&gt;HOTEL MANAGEMENT&lt;/font&gt;" style="text;html=1;align=center;verticalAlign=middle;resizable=0;points=[];autosize=1;strokeColor=none;fillColor=none;" vertex="1" parent="1">
          <mxGeometry x="270" y="190" width="240" height="40" as="geometry" />
        </mxCell>
        <mxCell id="Ud5PRaO0Ma-dnYLYnf0o-8" value="" style="edgeStyle=orthogonalEdgeStyle;rounded=0;orthogonalLoop=1;jettySize=auto;html=1;" edge="1" parent="1" source="Ud5PRaO0Ma-dnYLYnf0o-7" target="Ud5PRaO0Ma-dnYLYnf0o-3">
          <mxGeometry relative="1" as="geometry" />
        </mxCell>
        <mxCell id="Ud5PRaO0Ma-dnYLYnf0o-7" value="" style="shape=image;verticalLabelPosition=bottom;labelBackgroundColor=default;verticalAlign=top;aspect=fixed;imageAspect=0;image=data:image/webp,UklGRjqfAABXRUJQVlA4IC6fAAAwpwOdASroAw0CPkkejkWioSEipjAbaFAJCWdsrAncXi64csi/w9M/mWlakzt+tfNkKYA2dAzRVNz+p8IH+w1x/Qv9Vyx+c/0n/j9vbwKfJ/8j7AH8j/qvDH7XewH4IfOH9oOoF/qfQX/M/976MHp2/zfJP+2f8b1LYr9Pbr+sXwgkl5V442fxjygr7w/cLqZvXd4037Jdon9pPYj/mv986970VfLd/cP4mv2t9IvTdPcPm3+Ydidms7F4P/0D9v5YGoL1pnX//XnYeJ/9vSe/P/8/jF1FfVn/J7K/8n8yfVQpP+TV5EM0LRHzhIcnaXzZAg7r2LQUClfE0/TQFJcE7L+lj2Z5X9Hla1AHICb49eP1Cg5jk1GBgzJYhzTIi7nhseYcj8bxwcIYybgpOOQZLTSh01s6oWwrHiqD4MkcQQdmEZ4ib9DLV/0XYLj9ntxlQ5CoFVMJRrngcgO9B/g0FB+cha+1Dn4jOSbajDxUYUShCH00JSSVs7gspM5wncIIpsj7BPuHOek7qPsawYhWjYwveP/AM9Be6FtVLHSdZ8rHHZRyY/gEaWLatXVt6D507Mx6/KdhXRAwnn85pRVc4vsxoEwYX6DluBfwdPOFtYznyFMPOAcEjoVgQYjeJkz6G26/GNugx39GnIhFTNkESsjUo6VugJvi74GAPhmyNpruArgYACSIfQosGhwaY7rDvpO2WqFjiPIuFm+hSUvNOq6GBgJ2rljh+9Zhc78ss5X3MZDPVNeKBPXfl3GvbFpKJ9IuAbPsdSoE+D15CxYmXj96WzSK82QtHARlHD91mtYz8zebPyJWJ+jT76hslMNSZlQnaQqgGyxdIgo/2gMEyQI1iUngbUp9dC57eYBmuIzQh+A8Ry3nSCIz+ns9FMk8MAnwy2OymikrUZO3JWZ6lSE83NXjXMuUoow6QUcvK98FbwJg9/25Bw0yZGkzy25ch1MCD2XO6yLvE/Nko0VJlGZoyrOkUz6cc0apV+UAbF+7hcCRjsrp0ghJSdZBrxVev4BwQFh2F3172Te//FaY3x9fywbyv5EhwtEXDhx8bLPYJH127UFZLGeqckNxtVDWe8rpE94lYNovbQ3VPmyUH0/XDM20saFml9K2aRpW9wwhRf0VPS82NC2g5YZX8d/T+b+PizUlgrDyJD+rnyosXiLghpbXF+Zjtaz7qNGOy0dtIhCXe3CfL1e0Oob8ucNGOBn/AsoRhy2NWZroqeEY2IC0/d5mcGnzFL3mrjviEgcY76D8A5zpxVikMD9wQp5f6owyVu4wSUzUst1brQu0LLWGaDOGnxRqRwbI9TTiTdNM8WrIhv0FCTt/nolvBC0jVq4gGvczjuTJV7kgtRb2PHOi2BuCYgKukbEPNEi/SeUbKI4mIU/LlczQQHixpeY2P4apMGOsgM9nbj1xrH3rq5GzNEfnXG0BGnD/N9yF0RSdYzKTMLQ8+0O25Nci32du8N6hoGSVfGSHk4cz9q/emBdW724l7fx+5Hz7ODoiUHMvgxLe+/6jfW84MqYyqVAXQbgCOzihd2CKDlqDLLAMXq8zfjtrQ230Z3aUMSBs+djzj+Rl0yEm74Zuzn2whwJ8CLALB4OBKLO6+QcQ1CNMOqUyfbduJARNwftQrDac/8QPn0DcSrJEv1eHwZPg9wq/O+ZBhr99U6wQJ4VqTdymakxzqzAEVDCRvgGp2DvzJSjEDQ0SAhbZ0pcxj+aBUmLjm3iZAZMRTxfOlzSEqyjLz8nyBDXDa9Wfu2XQuIb/afb4eH7Y7ORIwQDW6IEZqY9rJUUj9JGHPBE8sxJnUD5DpH+/3f3WFzmm9KePuw4TMGhZTAz/ZaUsFF8FVxpgbVpt5YhuYJ2+UI95bVGlsWmLPJB/jR5uiaHEHp6HV3ekXPjYFp+3/s2BPwjHaW7J8Q7WuP/AJFCzZuBUKHzlu65U8PThkk9AJmJ+4qda7vBNZswohfDf3bpPwBmeebI+6GMK6jQoTUc7yO4SuXaA+plLqoltXL1cpzyRhrKcfDrMlEx8aOy3xYI2QUFTftcJ+uMclBc4qnQiSwZCL7c9hLDQJHCMQ/T090ldOdTKxiNUO9x1C6Ho8lQHghxq10yQp3CD8wAUm/fsECaZnRaRy1XcK0JM1k419jxSDvlp3xzXEIiIBTpp9JZyQzozYASzNowR8PDM6hQeGbxNNLbHXOnSdV02ypY1sShz9dnqUIWTlrPotvxsFrjSQAlCC5tD4seLuTk3IkQAVfAlPe0+CPV7xo1101a3HQy9jdr3fTkERdMoxcgu+NGwNbQcBwnqjk8fOu8Q/USMK1z6CxyBnalrYh59v1nolARIlW6/YoZGVmSbOJ1viBlQX0EYjB/pH/k680icOxr7N4xUbxPjR6V6IuQgCruyKL/Ew/xVrqAWo1J2VL7ds1yOoPaQgi/ABeX0joJc89agsLtZGB9SYpgHfQk9bU3CjuEnTQv1EyjSnzcJDXFjC4hPowy+NWT7t6BuRpb8KNSbEGZyqkek7UyBmznu54DrhaDVkRNRfS9FjqfAye2/CKZk4/mBT7B2ANKoGSXdGrVaGhBENs8Zx4k466HOisHGupfWVkki30smgrPz0nwf5HQb8ryFrCbAlgZPMUQyEV257FdmQ7lauM5E3/GeNSA5t4V+ltB8fYZwmpydyrEeL2PGpeovu+/buHGlJRJ8dHOjoIwVASp7WOOHaSdM8eL/w3j5KXxNA1a4gLMB4ta3t8XG+wvCVs1wIppPsfuBG47dRg8cP96dHc+C5JvKORAwjoUKNpPoegccZkkzTfKHPxD8wiQzDoUpT0nKO0m7FMGlPDyCakfdfnkYtAfjXNfneuEOJYiZmKC5sdHPGhbS0dteOzfRxezAyx9FcFAzPkboqTEpF3XbZoAYkIclXencjXaM7/hzgPv3bsS4weWm9vH11kZvL/jNK7OvtA2pU3MJnYmnM/BXowgMlclHyxtLVEhbqNSxKBg9m+QOTGsDYwLITUVxRi6a4cthoPuQPXJBdi3A0mnKSgq1doCy5A5mSosXIqxuHnGSiynoDKHtQUOMpTNwLLkt+AS+SVtVhf1svrKFDbrECoNZaoVedtNpf1HWH3CfreLEk93J0XEcYJIOkk4bJURda3Sn7Yog+O97qM3Iu7dYCXJpVerHqolX/wds6kRAAKaAVQjP52dj+pr0HRt37+HWPD92krU5UqbvWbE0H4WmPvQQRTlFN1bOvrVMjxvjmM1W7k5ZVsh8l2C0yjJ41rs1NJewPtdMoF1M8n/MJ2A/2iY7eCqjVaXvqz9RTCMe6EAQR/ZPNTgexLlW8u+XUbkoci6vvQxjuw2xO0F7w4x/2r/xuuL+ukSnNCz2mzFYaCYw0ofNYPYr1ogcDrki3/cPeE0cvNqtXLr392HokegvpZ9MrZ1mxDgnKFtEYg1cCOpu2DppyMj9bmgUdzT9f4lzhnFCDN5T7LkGzR7/7NoZ7sKaz5HBnV058hxlmkmWTBy5s7D7PneQS57nKAPiO2OFLLLTmPYR0PSyPsXrGsUUvy1z1jXha2bRju+DXp2WzoJnF/pALoM6RNHthTPnar8zeju33q4jIoP4/RsSj+tlgUCmXmYRxkUn5yN5AcoLGEdMgyNTiZNVjd5mlVY6TUQ9hd4nvJhGRzZDF52BJZN4XAls6S75P+tFVC5kCyX0/E2VIpQE65hdXdBmzdagt4JIxQfZ2xWw84ykyyGmz9cB2/eVDwGHQ2kVoIgIWV8Gqp70JiLljDermpy9eL8CePDPARnOTBUnSwTFUFxyRYe+W753N3EYZj0E0rNTPHwz1m5k+QtWTPtj9jWKmbED5Ces0sxTz29l+xo8+nRSUq1LhjU9ORqv2spZyoBN70/vmFo2hQJhqQjOhw50/FZomjEpYq+zAQlRtTmH3bS5UCSXwwb5Cq25VWHUQdy1gpoWRS00mJlK7PE3SKGb9XW35itrUjpj0UqEJDYOcMPBLBdO28ck6wAC7Qn5XuhVgTuuO3VnTgfwOPKkvT37hGMiBU6FZcWSCeNGCsfYOh3uryTM8Cb99vKeBce9Vji4vVdtR1q1EF6gmJft5iz1PvOuAQdBQRsbEubWFGOq33iWZfpJnby11Uc5+aL8JnoxRryWGgqCWyodS/laOF1MFN9YA/n7/1FJuTyAA8xcakrBwUEu+moVB4jOZ0HKHiAI62O7KyHeGdtTyWepb7mtcjsZYQZlsCQIb2Snuq0OeNi0sSSYoDT725oz6kR0JdPwsPOxf6aoTgHacjSKs42XRZpHB3AmfhGTCxVhau9n8cbMsrfy/MiMfSNB8geXTQVrFThaqCHf7TJLEm9g4UnrN+C8O7JUitTBMbhLBHHrOL/zCQrKunqIddHpr+c0N2Znsy9g8egSKyz6wUNW65Rw6LnSgBRSlhmYvtXbPSbsjxhe9K9NrvcMYYF3oWYOXP6eFzbsAjzREZHJBo2w1fgh1WABpLaMbE1KAMHqC1PqyNCXQbqVRRofuobdSuE3Hz6PT2OLDAdhcR7znjIaePFEPFXzP1XQ3wiZF7la2WHZyDnW7VNTZknsTfH7h0/igog6plcov3hlRoVtBvPkGKl+WLSLd18rqAyGJ485pTLgM40V2TATFejGtm72k/Sp3zMhMgl8tPrC53mtTXr15nRj+5mHjB7zn66qFL6D98UslccFjmWUVdBjpbWRurylBGo6EmaOzzewNS/NRZFA0B7S/1Ad2FbExJrtm6H/LWBrb3li05LDP8Xti49T18/7i+kTZZXEMVR3HG2t+5sI18KCVjXBuc1VH9Kd7g9UnAcLSG22+C2wn8Z3mAFOYjaFLTuhE/9EAUVq96q5LVp62JODyWOJOnsVdbNbk+v3dlm77GQgvXO4YqQlIIk6q4fX2fy7SrfC3U3JhEkR4gR+hpxeKbnQqVnc1dTODKBdGHnsiih7GxLPh3biuCQS8KUYVIKnVbCVTYDa6gegcT+L1Xd1EIVvyNduOLlFyMewX5b9nsXeMtpq9D/9nV9YFolJxUR77CUM7pc8IUP8IDEN3F5iyllqRAJWtwT+hRpApc7t1NqqEYZPRo8ZI7cp2RSKopyUEVss+d3l44pB5pYMkxBghJEGwX/2Q9idJbuhKoDmFJeOhnudmSVb8w2rhXyONQ3Z0tujaG/DXrpqUdiqbp39U1Nw0jIC1H9sliK5N6atMiL8xxjIUNKrQRhjZ9k7bsFshAaSLrchYROO3sT5BECglTyvS5pPl1HQx7b4T42/bx31X7VAnpqa3I8Y723OSwKJASKjVxSUk2yPC6QnqvI9GWFy/lQLw1MfDXd7Ig7tSYG5KzmU2XMusGFqmR5UdYAAdFx8Y39OC68B9Y180eA77x6qhA+p9KRY4RRL9WIwdeBdCagIWh+a1ytQ0MUuQah8LNUjQL0fXTKQ2O4K+GRWfLH7Pe8AnLzoftJ4ag9m6rpllqi2oG+lVyx9BZ+6Jt8/J5TJqJgs3cVkumaPS1VhdRDLZsje4sFPbDy80A+qgyDI0E3qCBVBrRijYoZLw3O3LvwEwoGJb14qhgDMia1FlkPI5B7YXskpRDPCIdJCVoUuPBZOvcA7hRLGjP3MmK8r/6/eoFK71eqBSUK8MuHTScxoBXep8WcyijGVvTiVWha3UfE62vSJ76X3uf4OIEfQlHEhDh9M+GPVgwh/E0C+uv2XI52gvS7iJ0INrCUxsB9D2izdrQerJe2WgcE3y2sNe0qIrNa51DuuQhBUN+mT3WMTa5ZzZQ3KqgzLkfK6JO+NthM7DKxuROJlFzBRBVKrAcotpy+1iV/n/+shpZItlytfI0qtdGq+Zf9YOSrWsaG5XpuP9TMQ+ifb3lV6ivSNBifyTAlv9LPh/7xg82snFxI86fvYXxYTqXreeKlEinPKP8bcg2UAHCNA9uyycvr5A3+LhxBjIHw7Lu6KGTefjEZEAPwGBQrSAojSduzFQx7ZTvWiuy+d+psDeH1iHPqiYHYYcg2kW9We2cHpaLJz7tr2m3tGwe4tsM2VpIFXtrfTPkGyYvkDZfn0bxhgCKhSH+3e429Ug6zsWrnRDpkODKF4gazVD2CLUE8EvehjBn0PV3Z9NmdXop3OusbHGI7H0mJSH4P4Ot3TvuuV3fOeMuP/hY1FZuQRehbi6DDiDWAngUN3piKJK3hPpngIw5JmmTah7wk1cvMs/jwE0Sgn1HNHkuAncZa90xDMwmA2T9DW4MKLpYrCtfb0Z7qf3lIpL5edCMp+ymBaM1qs2Sb2d7wpnB6NuObuBADZ0cPLBly5fDrHUZsUrt5OmWxwi/0tMKCVf2nAlTrIMdgXtaXwlaEEggP/Q7AinR8wi5FWoAVKKWHUNyop3V6PgnLJUBUSo1L8rzqTP+1EqIPtXKamurfsKeUTfccJW8BwAmA5zLEBhGh0P0AGBVHeLfWTCi6obRhSqK+HFxB69sNXV5AftBqSXUwXSZ22wJxHTDYZQ3mTFNbml1FfGL0eIxrEGqoQOzpvUfRSKvgvBwhildY24LyYcpWYrx0KMopchk3GOBStAz2fZZUdzJgVUYStNsModUYizTKLVrbVrwquAKGKeeoDk/7RxY4W+umax02kiHUrkxAG/EzqBf/t+Imz3SAI+kuqKlDTP7U3P+dPGNzFSUvwZPHIF/Frpj+b4hJ+5PyQYoGv6q89yuqHsLU7rmPLnZ7KFVAB/dbNDkku2mXoXCGZrtIMG9tdHpmjS8dz35KxhIVsZz4EvaGR3h8XcK3Q4TiL3WSoGEnjjswt82Psaqfs6PrdruIZ/GgZqsWr82+H0yFbqDEx8Ig0czFmV5Di4MLMq43Hgr31mOw2hlj8+HCt9lmuKy8btW6Pj+WPdSL7orwHEdHQpvObpqjzXfnjwKqGwHg11xIaxjQLvik1gR+wPqOnMJoQTyjnDa5JWnM/vvvyRO0soZhR21JBKHm+nAmEraBFsJ3mUj6DNXNuq2Sefhd8NzD+qHlAkQ1T3rdMPXqBX8p/MyNopH8WaqDcemsNTNY8GfWsCJ4ckeXI7HOnbrthib7O5xGTXgHEOEF0tK7RynFuv8Ly6nikqnNqcUQc81dgpJAZFEoAAyoCXhFbd9W8KVf/3GCwq1TsEn9dVNYuER0xScx5bKtLZSq0VNfMiG6nk4mKiKiL9BR9bPdqhxbMJMW7lqZLvoldZNaXbksSHNRgEsykCxFPPvtD3VhsZOWJlF/WAArgKuCCoW+MMpDKuCWuVGBQf8Bi+HpEdLSOtNA7QcqVgDyWrCzbgwh+HBAjo7+tGNcJrCXWkKRwRGbEcKopQM45O8vMpGvX9+mAb/g9FXdxt2L9Ep9ls/qZINt+QHZwfv0vvMl67nloZaj997NL2g1D6cptr1FWwBhS0Gpql2W7Lb2Z9dho4Yb4bKJU9SwjogzgPNLkF21JcwgQVkxZNjIGk+ZZWSYMj7TJE7/cfJm7fe+APViBENkUX8JKqzGFiKp/k7NL84QODVLvm1G+WiR0MpHGhAlWMvBTZyJIMdLZV0aVUiaS2gijQa65xXvHSw69lfn0F8abgoShcOtDD3ePl0FIUCoKfbIArwtxl4bnN0BxPZRA9jKPNLx6rUKlL0fQQjmB0/C5dg4gkAa3dVLsKaOhhm57rCb4Dw+oLY+poK3p+m1RqBDc5NOUH9aLSGIw89gVJXNzmzHYYqRh29LZKlboyDz4ymDv6fCTSdatJDeFVoh37IlgdJpbS7VQi3Tv6gHQ81/FnKfk5WTEKklqQ4nqdpDkAUEMiEyoasSJg+KqW2gni4ql/66E/pt9xIwcjloNH/F67th0AvBSiZnHpM6IRCTU/EliCysB03akcpItt+7fPkr9qnTTpoTkDitZy0jZS8D0BE+3PcdAXewNf87B3RhanFo1ZuqwKVcY4rSC8D5VeGwaQczXQBHPnS6A+mvfLPjzGUOo3ZUaSitWSbb5wzu+pK3VUYbC52QLIZdlsDi5W3c5CXDJlJlLCpB4Zzn3SKHDpJrlJWS8zPUWMYX6i00gQ/cAvNy58RKAPgpEQVDL4ImyDkpJBNaCAdjt9rpOXvPaMyqYhPoQcJneAedltDFvBLa17kScSjzk0NE7g991Nsy4lktSsm8T7xP9L+OTjPf8Djlcw6hVYGYu10sFPwWscHwDjGVhZ1BNFbUsUwMcZMjvOrBDcGg9ROkpW085qsxoJMa0VMV5EHjYJJnXikZeG2U7GzJusM5R40oAiKMqht9q2UdzfLOStGuOJ4woUPUJYa9lgOPrwFp7YYD2rxjrhO96WhkLbPyBm5t+eqVwWGicytX0PD5F0OUYLjrZKdLRl6hGfOCrVgRDEQIT1GysQ7hLktbqE+fqe29ORQ9y/CYgGYESrMl2kxaxmU6HfAWps8fXC+avgrye1zedjwtPwQPZiZm2QfuMV3sCojzAdHLjk8XwYtzm4l8B8+0AAqyVYH94FcsIOW/iZB6hlZpBtimPiNaM8yHUf0NmaOYxuW/kXkbwz24qZjEoW0HtwX7x9kTFE57JkMT6Ry6CsU1qEOkKdAY7r98bfLyTyH0NuFayHIFUalv6KdyqQ9fFuN/qX9WSJheLcsMjIW1SzVcr0oUkx0au+3H5smbSe5ZAuqeDYlyC4mugxRRP7MawpdMqcORgfAFyCZRqF5asV1c7nzGy36NBq9yMPzXuybbcxCknOAqPZJGneymDkOTTqCYzlMO9qAb2dpPOrr5ENZAPcmSxeOY2Ar5+nupUNwzdY8owOiQS0VGPALynPRYCJuQ7U7CutiXjVh8+KQEEsswZklfAhswTrhU7n0+zJph9w9+iRUdkGeQpZPi/rZXklDgBhBNYW5yfixHOkJKUKmfIU+rj0IuopEaR/7m1e/BaLa5pBKnEOb9+AqFs0DQGp3x+OnnHumVZsSuWN8fC8gHDiX3Gvg1UemTg1W3aGKpN2YfspYGXicvM9MuQILslvCek/mxnRFuwVvzVJXt0EYEEjQryzaiiSVitubJVrPf4aujgiZozTSSHQTWDfSKx4rTIFu2EJlUsrj2LpOcKiTNDuPnSS4cgYrw1tdzMI/Y9kDgoSFJbi1qY7xl/9C0SK7QPQQ/rNKYgIDHoe/vsST9CQe5FN6JbH/xjsGE+gWzorpIPd8ehyc0x5rTl0U/33lSoDMkAqzlM2h0CmGEvzTX2BQ27C4m3Q49TOJm8TVkngmbabuw1rKjAsuceOQQ3cf4t98Kvf8c1mW2tTcRWfilc1rY3xAsdZ/KWypU+Cjhp2gOWL69wzAwQsJRjaIOHaf+MH+w5zxVXE7MevbaLeYJ6V7HTirJTUFiwXHyvjVF4O7PGhruzPKHwx2t73Av+kUnszqJQiiplvN7meG9evCJguLfkVnYb0+gq2qqAqZKfMfjOhmVJjUPH5Qvxb0+fw+E1qwD07gFUCxOutszZFexkCq2VfalevBHUKfW+TVOVp86CwI0BFvjszHUxE+rZPhyesJnkmNzvdUxldcoQnikm+A0NbQ+G8qtUIw9SB53E1YZxuBqcjRgSmEfeL7EN/vtH9wDa8JXmeBnqueAEP1Z4R3upEYVDQx/NcRrHpRVk3nAfyalhaata9hHUXR8TcAoAEjfIKANgDClWy71HP3jCk73ng+SvHCt1C8j1Nwj8mg1MLCECDwGRexnP9DinXCSyjpu6e/SpLVqG+iZmdvocwbG5hCqaXW8YQa8wUfgY4WU5jNkc5YyWtXp90DrRyPe8ZRcRhC5gtzQAeu/LELbeATkbOAd7RRgu+gA+6zuohmb96S8PM+9dcZeeOMQHpSMd7Q7VcPBK8iwfm1Y5Q5HLWMR8u1Ah4SNWHbopbUvJvtjyRPijPFvTOYZCM2emtuE2YVnDd+SKhzUFvV1an8Q9V10ObUbPbSSKmhxkMkZI0e/44baebB3lkbV1HJyq8XfXyQP7gQ87Nmy+Pig9DU2eCaeIKbhm9x5Hwm/LQHhYSfR6a8EPxd9T2kfllmsXagbfUg8rnZ8QAAD+wSuXc1yplq+BiF6QQ6KuYcFjh5iXuATulS3Qx9h/Sx0DMrcN5fPEjur1KX7ZBI+e9DBpPDGxbFQzlkrGcvt9baHMMvVdxdq8qjYkHXPPvqEJswLySHE6m2aXJ0D3skizNlvwJ1MHTMS0cShbPIsRE52/f3YGYV3s7REZEJd6cn34T3AO4QggamW6romaPqdlgpu/IWrVD0kESIVoqN7waPMJNpr+AkjvPGUSW2W7PrgqNRpx5X5wbOrl/vgIKRpnRfmSpAS7tKzqwdnmlMc0nIPnOEXIsO2UtdYuV0V5AUIWJVQQVnhffJPfHdyFSblBMDiVaus0GFJMxg8vQW6XOb9DBvPA57vC7C5th3n5ncedYnpqC+4KkSct52vH63ztLy5myjHP5w+sh0TCZ9XP3ECtqDjKuVBljYJUZky922o2dQQHR4/LZBfpgUcG3DtPFZNrT6/ZCEWr2cfWppnr3vaUUpuKHTIyn0WgnPAMAKf5IZQrcT0fNDRlybteYFNUaj+dZLthCncVpZamhOUW7zDbg/in+K/3EbPXdEc4O918VW5EROkc1lob+YUisIzcgCUZre24vKPJRrpg54HKMMoOzkBfvO/++2RVPcz8Qy8O5wX4GQyP/YNJ/y1p1t/IGiszz3JZ2Gd5JdhyCymQqI/+1ehnbLzi5RkLfATV7Dnq6IK6zP2dGb7la004tVFTzLy3LabC9MZZE4wIZfCEnVioPEN+9Aorcz5X2mLtJmBazaXwIJpYAWpjk+bIhEdLJHf6AK1N9c2ZDwUfa7LOYZOhzVa1uLmi591lShd76eQo9yj08t0iT9ErizbiiSAc5FCciGF7MoUM+wJNnlRP9Ik4QfwgRGhncjRXOyE+CSLTTKKkMi0dwOCfx4m/dja0nGYDYHHlnpYuZlc738je3/ez3Ce1M3CI2+pCmLOHx27zLUbU923ffmDTtbCoIc0frFUqJ13kNCcIhVF3jOfBfQW744xWz+8OYBy10FH1jy5AZ/om4zrhXeQErTzRs2h5KUhQVyuisnnhLprciwccvhUTzXn6UghaFRjLUEhahcq3Ha2fgFqPFAKaio7JoCecVfoB5X0Ju3dzrxPxRV4E3GnWNG2dHv4ACFlA9iWYtUG+FidbjlcXdx30hvYQE2oGNLKnJ7kpK61s2Tk7/WB8Vt4lWj/jIbTQyZiqK3C5RR+/S+0xzOJbNrEPm6lytT2WcJHbav41zA3x3axsW8dJge1qgpDNqyxuXLg9WhcunuogDtF7m0aD6p/oaDUZGEIkPzyuOCBd0SpdtUouB7QMnaIFNPp+Bu+oa+Yc+aV5LK21qSUrExSisRD4gtKsuSvv2lPS8dd3aAvZHLW0EFBRrd1XyJ3lmSC+sr2SC/Rj/A4XWDSf8WM3RM10X4a1/xaoomTg55XIoQjW5Qo2oXszdoTGtohMRTBQFg8rr5r3jrKzXkCeiclXwUI+wX4Uejle1Y3XFCY40nwDLp9EW/EGok+nVH9xQP8dUwqH/DLR6ngV31elW7ETVUtOfGouAIiys6pvyxSxhKDwoLc2v/vK8KaRVMV4J9fsmgsVS972tWTxsMPtzZVQEmcVmgF54+OaP72DlkBDCUC0DtkpqSWKMbgF6QZ6u4Y3UptVTGoOT73OPemzCLDs/jA3KiGxChiz9SccQjo4DSF7kwNxqHa8wNAiH1xsOq2ysm74BqWTk8JubwbltQaVmc4jeBV2wjUVviIwN3ARlyRosJEBJLmDzGRaaZA5e5AI2tMGlk6r74S86N/U+xWWiDWEVIRBgPaFVTYF3FWzDEQOZjS6hTnOssZxXq0gfgAOTHhVVQybH2t3/ziUvCZPrEUo+OmQtr/JDB5ffyKtpSTGTOABCFY+TtgLago7P8Io10ARVxxxgR36EGPuIj1tXllfbfRK1D67rplVGMAyarUBeBPwzKU4egs6jbHzvQZvP0F36muUjSPBOUf2a0S6/H0icIfg0uGJsvWL7xIY6I7OoC5it4A4/DjomcjwHaqpgf8cxvbDuWVpFavhKYYpPXUxbmmqozWpgFRFrNQ2L2BkHc5Y/8hLosT1azbFjI0m6eshaK+ZEPZFrwlB1fjSVBbjFH6ky5kv67TW7F7vZUH0jrjwSyFLZb9HfBp81Ip4TyWwEttyNZcUarh9vWqnsN6kDYjz+NBg5UlvhmCSBzaNuIk5wVI8rp4YKsE/ksnaa3kOyj43jpdXSEXK5eUavQvnnMdXFQ9PKA1WmFwF+y0jZieS3pTLzj7aLblzfOrketkwxNydzSmFupUlOMx9ulCEH3SL/VaVKQRmr6zWmcNNlWrRBuWkIfxuUDn3RQS0FH+92tJCEAihqtucYcFTxPZgMVptTfbQWadrbznMtiB7gwM8ss3KeAzAyq+hvQDby2cQtUZWJJDRdBJKUzSnzb0UHAj3o2Th8eVHDosclCSir/wGhknE1aGM6cjPoLnSONVBqba520LNqm3c9hv3TdaUkg+jv/+K2kQ33Zu1V7iXy8KwtYcWFb38QErw8TFCFLXf8aJy5OxtszzVEvKnJlHmG5EsyLjV2/wZZ1qJidLWwW7ZzLfgXa2V8na3OKyvr9V0IO5nxYIQC8VaS5Zx5/fPq2x55QUl5sCjsyRjeVuUnGhGo1d/ds5fgBTPnwQhBlx4HUSnWyjxj4mZ9bo2xXsVCr1FTE2Sy8BJnyJbrOLbrewHnQZBKAFeWQ1IjLmAnIcGJOhybwBiC31U3P8nChJCceNhQSxKxkFt5WurastP+Uw4s/NvWE5QeaQUYQN8ectznHeuO4LhvYis0th2qDwAgJy5p/Z1EqsyFhppftwLN7tnNhknUZq89eG3emPCjvN2aFwWdiGsSoeVWYLI42aU5t6jGknZSwHkQOknTln9y3ZQUINRXBfvgl9DcmUJiAucAb8DKsXsSBPE69/9YAt0SBOwAAK/zm+S7nF3gQubtAOcCeAQzTMwraz9v0jbU4VdIARZy/r0dasfiD+i6ES9wsWYbeytwgDlWVeXXJmhnjFGfDP2GrWqzGq5lCNeZun/dPbmJ8pS58HvfpTlzb06loWgEn5imN9nM9B20xn4qb7XI1iUpzVA8z/WjuubJxZ4fD6f1jYB7kWD76DgRLKrwRHyHxpOSqJqMOONGWuqDMq9YDS4V6wMbq/ba364YhpoMDeDeYkgK4qFnWsHKxoAeSq23IcURa++opw66F9V+jQI6O6gjckyKE0elbBXKM/vmt77WYAldD1S2oy1PVvvegXLu+eIMwwqgYWVQzKGGhWwXHa4l7UD6fBTtM2jOeJqlU/2Nmwvu9oKZx7QDgxRNB0Rl96mrOPvVQ9LOJWhPeBvleAqM3gCaEj7KpaArL8qV0SdlsoZbawU90OYcpHoFzeiGuOBFXESAXWyp+5+2aR5T6Jozhbj3pfcgaxrY7QqHp9k3QG+scATmOe353PwW1U3iUatkhjoezPVBABcz1ztKqsu6NpmlnEsD8oSZLdalbNtwHhjQkxcDl1KHrn0rNXqhtjAn45SZqb1GloYorhf+luLH5ZHYJv2mSjcAPMq1LOAmufCB2PIaGppwAHvexPVo3KomBpiuKIeL6GRJ+79eNqvk/dRBD0pYpjXMC5fJ8ouRawBll/cY6WG41cNWQKn56zmoZx+ZTgT2q2e9EmEL6nxueRj3lgIyxfZSUPQHV+ahBS8sZzcqSFwTiVYae3fPAR9eW02JBVp/MXJS9+vqvWmx6bOGJhiksM7NiDfwQTfwihlehdOEGYafS3vEdLQL8ukq37J/UYcjwbjqv5qsi/a2OzBptj5LYlhtF0Kyunvmj+8bb2skScGxXIOit0egeTmInF/boP0Ly55LrBMPuNxuv6GzTooyWqehhKoDHcjZ92FAQr7BgciVer7dP3ipI2lQsxGvtSvDw9SURF/tUXyiozLpuRTb8VLovbWbDisHs3TBMZppQ1YYU4itv7ykLyofrtO/qi+2RViXnbJ7k7AAxh49/hovKY5gNJEfH1ZegG0qZGXLokdZ126FIbkDE+SZ+ha9YKxxRw/SWg6yAvoA7Ef0YHpnVKsrjs8OJGt5oLjMpkvhmdYS25vpABT/YppeNf5+j4i1ZVDNw/R/d82zGH6IqcvHxsgH1lunL0CQgCogXyiUiJhfDK9iiNC+Z9F1H8qNd5A1a13yN92zZy5LNT0FqyvwUbFWO0CWq3sre36Tg//hu4tv/PxFHIdU3nCqi63kCPI/mSNZW1cmI5tUCA647r23wmpwGfBbaMrVhCCJU+OgnzJydiTQBK7yrQNRde9YgK2ZC3/Fsai7rlqwp1sYU17trp+PNtnoojQyKw+LBfbNH5TpQYwX/9KVLfPQ3gkjk27ETB/4hcvrGAdwsjpRW/MiRFq6tGhN3u0gn8pSBCqHx6wK+TuxP1Z8i4x+Lr2Vg3W4q9zHv6FN4XQmCs9R3KFIlV4RWGHC3ZnUSxN318dJZguQ3c1yroIdAeD8ldPzC9+s7oqM9GAse4BiKjfeYZbHckp7pHDTcbBsaky7plD030hepMrny0bmmM82cn325vnosn4B2zGx/KdVPNJPGkDF3+qK8/FU/cpa8gjcMe5Ra41sFCqh7OyU7XIn1JtYCGMDdX3sE1ZtOrq5GgFjEKIrjGcKvqr9jATvpH6RCH89wNpAV4RnmDky7ktMY051OpUA5tS1YU4cmlHl2+LmqIFynI5qk1ikLMmc+stTjv1SJPT/xm9dTax8hetdg9G6UJRA3Mcm4TB5cwip8Y0bRw/Ioxg2o+IJ0CNvZ9RFaz0CXAggMPe2PtkX3oIDAO1T8Ez0IELz6xQsTugdCOgzHAcBV9FhufE8nxpBU0oshzZ2OZua8adB/OA3RwPMd9GWhrL3BS40sHGQeq3ToNfa4tPIM7ZyS6rid/I8Okm26ehGbtElIHKe7AojGZlMMlha92lzGHieq0geZf2e+g6OIq4/351Pff3iHc1yjoGCVCO8KFI1+HH7aQ5qcJt1jjSgDzzAWJFAzIvp3GUZKMJl9jAmUPz2H7K0pVpHwIW/i3pEBOFKpTCGCxJjCMtZ2Fwn3w5C0LgrG9J3bKprbKurXWaPDTJv/yi/xPIkQ4W08eTiikVubqRy+9yYrDKAdfz2B5Tba/WSnQrdZeS0atwhSW/hdROIcctClSPD8frUkb1qqwIn1y38NsIkkpVRqIFyt6EAIADxyVATDw3tpXbjluXhuR1D+T5GoY+vG/B0iMah2tlSdFlYupSNJO077VCJOTvY8WBAAcZ41PmlM1m853pEbc+AZq4QrePCkrC+7QGsV0zWBF50G6BG/nTXQX319X+qvU49ATwHTB4a6bzLOlzBBYYBAplbEDgTv4d61XzDkV0attephbREhSfnSqhqEivvFJXNMQFaesW0eO0E6hNxQuPDoI4C02fYNFkF7L8I08P0tXmmAru2Ytg8BmgUUnakHzSZBVbfCFP+4Lsh89nJPhWcenSzSc7PaGyuaX5M+r1K45KvLDUsKD4gQHOJC6Lv4vCAr3UFsiwuqlcuxAZFDjsVl3nDQyPJHx3HOZgXEwImWYE9Ei/+42AeSfM1jdg94TyVk+rtREk8ose8RPpXdOfYYWRx5zJ6sWPSBukzlmPhH63QEKqnIjh4JpFZ3SaSbB4dEh1NXohWMKA86K6QBsGQBpPYxbP/utEoItBv4aCEX9vAqceyliibGISG9EbE6gIZXHKQ+2ulGO+o8dX09DhqGzGl2DvAOY61nuWCrLQKKfVwusRM5WsIWNJ3/F8kIJDvKMSVI/Tk/6T2o3VUHBq3WtvIHlmCP41TmPJCcKTivqtayVFMVWr2xBFJbaNFRJVj/Ph33zy0GQN5CYmaoVl/JhPHir1C1gNCoWjRDTWyKoZSDXKZ5upmBn0Wws0Vfljvp9JYkgY2phhN4Xgt6FMgWAiCrEe2AaEDa17dAhFFpXKzYIMSoZ0Nwbsv40KX/2Oe5V33n10Wy/IQE7dTC8M6X98dpyhKCBuvlzvbqjTt+QeqIRnR4xxFT8ZYbvNND1YP16quLQazQgYqKsePOmMm1ac3p6ERGWEQEd28RojI/FW5bd30NmqP1SJOcStUfUi7ZbxTwgB1GBrK8Ni5cyRBJ7JA3yrDn/bePjeCCff/gyg1PV5QDBT5a6oDrVJKeHvJcy0w8nWmoh8xUoO0vYxwZgRNv2NNL82pb3TlrCfTPThu7BMsVGy4IiPuYC84AC4Z7QRo7o/vEh1rgFry2YHhbwApGGbY777iJpA+QCY1augHJHjzsqlwG3cOY7L9dx6aQ4aALaeyIMCo+RNZ5Bx2xGjgGXenvhaK0r+9BEKHj+eaIo3m+ruAWJi11rKUK7a31fLrJ9j7Qp7eOEIjOI8iYO93tav0flp6nePY0DNXPDC+UIf2ehif1Jc7YP3q3lPbjhIm7evchNKTmpEbb0BTfSoPfGWe+AiZhv8+vLgqdN/3mjCzK/YiljXsiPspg/ibBNtybLZhMolGPayJ4apNc+fvGJMdqWhlsSoKaryaNmrav/6N/dsutxBpwZvFMYNEAweE0WhHtEDIaqS88A3rDDLpcDIrc/QDgd5rmU2q/RK4m9ifzkSj/TLcPK1G1QGWdRcqhCDwL+/46mfMkJAwuf39bAzNKg5/VQck3cEWKTBpiD6Dl5L2NfxVp/7yu9DNTAp9E2fwrhezuV6nh7lzcGQBXxd9tCgZyEQo63ytB8JB1GLnF7lfrK1/iahYA+PnjcZAO6Q8Cf7dFXtVlQCMQq5MmIZIWmH9byf6HlItY39drju6ggsGlT8jql1P8XCyHXnaxAGLE3FVoaHyXAFosIbklW8h10f50jRtRoaRxJDbln+d7vqINHAIq8VHqQuzULdQNvuareygJtZGMHY/cNUrP749x33cbDrh1P2/xmqpxMszRRSBeVQ4SiCUWrmR8JmFfdkrq9Hxbb2XvrYwW/6+sAkuuA0VeLG46p7tQO2JTN/A36PmcX52CZIXf0lu5Ue0d6/JBMil/B2UAVHRZFBDEMXhY2d/qC3BBukMMWEedMx64lx6TBirJPwlN7q1fB6AFQhCSkVkTT3jJf95hc38BEypteCiLjtsLfzdB9tctzjwVRBK+GAbz2ABuhQDmkBa/cgOs7eDqXNHbV+LDPw/S9glGkQvy7QHYDH2Jy2ugDtznBFBZAsgp+qtSno9iaY2cgUgoVpHGEDf0MgjeBiGRXK8jqdSZSTj4EDf7uvRTGF91F2EB1oCWyeoSKQ2tohzJdZ7LmDCiYp4ysxZsZNYeA0WaFqXSvYhmf45/BYjkhUtdDQ5OT9IYQm8DQQw+9YFFRyFWNFBM9nWL3siMJxz6pMo5b4INBSwpFYtp/g6oTHwEZWPBAWlDp6XSt9czhnIM3z+9Q7dQR/I1fJtg2i+XnCvDJEve84AQPKpt8ChOHSdxf/yMRMxq/E+c2ZoGp4s0352qM1U+BsgR4yjB5xB6XWr/z+zrKmgT5XqHA7ixjNILmIbRh5wDjPspANeaS7tKRfFPQWDqUBEAYLGsrbT5ox/dyxdqvqx6LAN1648KC/Xz/f1cSGf8Fom8m35RBSNkEVMT2wObwUg5FfkYKgY49uL6PYZMYOzxeedbhAegzuRhXij3UCBBzmTGeZLwKD+lqqjP3l5PDJCfcHN825zsRbC+QOt5S4g1YmljIuCq/xHellzPQoiyTn2gU4ut9L59DA2ksdOdWxLiZVFnN7rHIDAqH3BQRSO66sJUdCVhWdFrvQZ/N1gw7vxg7F/dHACu5Xqyl+hb89RJrk559/XKInawaD7FATuMOfvvKXDjdO/A3K15jY6OMxv1EOKisyX0Y1eP9gIEg6tTqvq6SmkLg12/ApI6B2yRz/rwxQu279+zxVDyoPwuGDmqsTqaCCc0mqeofsXAyep1kvtBDW3wDZgCCXE+iFeMFgwzevGFSm+bdRvuhd9+mjs/F6gV8ffhICqlFTfW6Ejcq7P1H3qAx07LnyzZQMABRobMXJpckPekCxdvSEkCYOFc36JL0s1tLls/Wb5NYdE2L08eS3oCdgn6XrCT+xC3CCLtFni0YEQhHivKvVRLQY5IO0iIDJX7Y5xmmgkgP2zkG+Tec2gwKdbkRvX+cTioai6yyUVab/6D/kmn1JrIOqdUoH/MDywiCSoibAy/0UOb4fr0og4N9nZ+yZ2dDcbOY3+eG4qaLLQNeAVWaaJWn/jp/bamDB35wQh6a8G7rD5DeYZX+T8ecqC6gGsed9lfYITIf1DqXgvQznw815LAhLBAOBCwmUmR4rlAyLGulIcy7bhnnAkFPR41F07bzskiGPCvKXEWEbgAz1RcpjpzCBb1wl9tboyYdASZaPc1owRxHUQH5ok3+Hej4WE4dQ+xI4xURDtD24ll6EjIDTSz5eEGHTcpstbcmwFfUMKT+dl34fMl93UOqL+HXlQB1+gb4+Qof0/uwMJLSf8LEdf5/rVK5RcheVT+COE8xCynMncSZi37hIva8EEOkbtx2wgYBM5GJPAPi7LdK6gmwOz1ME5+E76fTKGBISqABTv7iDTDHLN8X6593kaWNtkFIB31pvQVRfW3br0sSk4RIrgysL8eeTm6r2Sv88DDYBBAvDJNdqNNQCY7AJ5+wKIdVYZxyrXtkq6gMRHSHpUAIvQBWS8n8+Q5PWF64sWGyDCulT5akNOpak+ZIy1LbOyhXlCaCa3xQp6PV7AD1sS1VNki0G2vWtqM61ivjmG9/DzIyP2eyFOhvgouCY9DJx4Rs6H2kkX2Ao1Iux6mNSziRpk8MdJWDJWytva/vswOPeG9M4YgRWYZjTA1KNaWJSlAdzg0Eozbnj53sPb97H4GKNwvJ74bXihRoSxo81Yd6jOULUHJP9JmwFIuLwGgscJkrCHb8mr9fWwKOm5n8OTTrTFwvN2YWixwKmFsYxuAeJ2jBCwsIOhhY2IYKLvjyWw5WZMPPXx1sc21d2AS998IScr9j0fGijjBQ+/YYkKo0ZYpIO/puWujT5OCxQZeyZ7LKduapVtugr3mHECEB56Kl6q21Gqle+lD9NPtX2kfswFb98Z3sAITO1Vet0eJ5OUB9pnw3GcGFN92UCsqjC1NcIlacZ+jz4wzmSwvgf2EJUr2kOSEKgV/kgXH4KHJ19tiS74RqCWO50Wu6jZGelYw9Cqsx6mLLd2x3GFdP56Iyaffs+c6YmWbyvPOZj79IkoB3orK+Sfsn4uyv5wxJ5XGiSovKIM6iH8py9BWEZ0lJrU06E8U7rb2iqeLFKOPYC+WkPef1LPGkORXC7MHmpuCJi9CKO0XVjftrosMW3epAPk6iGdDYoSeryAn+lQORJXibwQdpY5OBMsZ+LiFCh9nq+FA5acRHmoEzgY9A4JVKecO6aYrdlPccPfPj94x63+Pw60udpqAxKyJLuHgNMCdipLbLF7Vuicx5FKE0wcnmI2rtbQ13xox2+t+lrlqNBsqls5lV9fwTcRpkzOcG9CIek4kyE6I3IlyKLkB6WO1qJIkbqaEA+chlhNeEvzgoNAdJxGwA738hnsgWgIFy+hF4SF+MuiAyu5lTsYMrMqiN8+nJVs67yl6zjS02LkDQSpZg+gxwHOY+5watVWLlqAraNFxSsX7dM/LpR5ukuJbnsNfAG0W93nGsVdtXP47uI6nO9XyEe/r3DhFoOFe5Wa6FyDQq0KVRQ2FkMDDfJAn7uOZe9/tzmTg8Ecg1wPyIKNyZfVCsKS2fksOKlIC9gP1baxYQEAepk/Be1F3aYI90zAHwPFEt5qlCxP0jQg7uMLGB1BZAL4UrPGBdDrkaAQ0M4CJZ25wBNPTQxoamvnpfdIQc2RIQAqv/3MoA8ssGkKKhIIv+KsyHgV7Bgsp/BiVYm8f+FbnbIFa2kwvbmieh8QMfq57PuQh0+NqV8qHXkUCZS/Od5CueQeKlp8gTXAWQZKPrISkUDd5fACnrRC7LbzN4mSaul4kaAIqJkZrFdKYUStRB/5MLZuqc5b6kL0Xy+lLBTbP9Vcw/hVlsnBkDXMb1Keb9Y/s5Gef0PbOm0mO2w7ww+ytBTyjg2H3XMT1rug1AYa0fjEH1GNnnEdgo9RjYZ+YVgNla2lk71+ekRUF5Py9gz7Wh3jhmH8M1ySMXWUXnC1s72p2jmZrksYZaNDnnsPbVL5z62Xf6z+T71OUPrS+58P+dE3KyD4avoYoW5uPckUomW1bZoT/GC+vZ23jpMCgfTUydLwXTNqcNp61IFl/DzZ5Sz9QXZ59zUBx7jvZR0fjhSAvW8UnWeD/HF3PiFo+uOYrXlbP668un7yAb8h+pPw7d7OiC8vIQ2nbflOPsUnJlIm+vGuh33Zjhna8NLkI/r+AOaQXJP1ct8thuQQAoa60GQoKikobgl/jYitsj0GUAMg1anouW0XvUn1Z+BNrDSDwEBcWS7LnCGOWIPcgQXXe2+rzET3DzDXjHipM/D3fER85QvvSwjhqFpZnqUiAPPSsfqZqitT2/LnihnydrNE+T0XoLsYABbHafvdv6x82ByuofVFdafcQDN4MMsmUNOMA2jfeOFSInkdKFmgy+SlPEC9O/5Da5ZvAJxGD6o+NNqoowXvQ7382wnwundseVaAmCYAsILPI0X/kq2CXuapvKriLWsuq2KnmTYCc8fH7D4f6WcOObrudIMMfEd7VKdVXX7rJKEiHguhgqzdqiBMug2KBDkk26OvE2tKLpS1gMIZk387Ul6Wl+QG6gRu5+RBcjcYGg1o7AcP8NAR7cjibNVRhP25dTkJwVqFM1upcEAAfwZw221ISBrDfW6W3AH/TOSpgt4A8boJft3qIJW8dQ9QJhKb9/g6cbI5lo94vEjr+izR9FstOWFb5P3eY6l32DOElPULJC6mvbK0P4S++OKEu63bfHB0Ci/S0P+e9QSpFg3xBsMwOqfNHeXJz7H6uNV65oxipwT1kqSVBAEDQ9BkZpwyDax8zVKQFP6KZYHDlWmOLzW8BKoiuJLB1EAXB/BV5rnxTm072THNoJ3sw3jcvfhytHx9g4Lban53poPxVtApOzBc7ElmAHRRIlY0I9q2fX6lmuPLsPlzXDzXZYKCWoUP+0IJPJesHdN4aGJG0WcqG0J1Vojpb+14PlcUoDNeFFT9UhPd/UiEZUHgtx3VL9Bffu3oP735HB9EWtl4xm0u4zg2IhZio+9vzSeeDTf5oE0FyRNp5a3OpYWWJ3DXGtHRCkYlZpb1uRg2hNtermBN6aI8BwksE9rVi8Jci4eS5FFiAkFkVztbXYOtDKYf2rQkWCXnGW9aMxvUXn6eVwyFAxJiFjqfDUqdeKVcgh+8RByX+Xar8YMkJrhSTImk6LIzj/Zhrw49hPxte/i2jazlpYD6KWxZH1ZX//iUMEvVpdlygAz6dA9hGBxDM659RgXsHCkjqKzI1HllTNn6T1iCLQj0RnU1c6omnoafpJEEmBGb5l+KlN8yMRikCwfwm1wv47f74IYJbCdL2PHKPdH2U40TYl9aI8eRfDIIWB30uQjWQjhhLeFmUje7D2zmVL+TeGuJqaj4bYiVuXY0+0R82QJW/ZoV5Oo7AZYu58J5TUqmg2+D4jSXnc5CLDN0jzl1ywgIAcLglpiy+Llo+dphuTudkRQLPhop3923wgyAQIVbgg8nOY/MClDZK4YJqzB+Gd2pSonB2xgoebrgT8QltbMFdSAJkmn7qdNgbsClD8p0Ih7/WOqx6hgG0PAf75IJxvWRH4osAXAw6lKBLsnQWo0saFm1xTHhfFbuDTv0+vaFH5kvmouMDE00JqI3z5lIH8gKJrGEfwOfqT4bErGF7f8RD/2ObDdkFAcAnJz9c4C9UzhTgeLLfXu7EARSxDfhmIKOPIF6mqPxOnvSk+spXEj/0fUlIFgv/S+wq8HsoRmmaEtVGJji/WFQm2aNZwDIAAd96Lp13OleJBiwBAEgrAerH9RPiWTFSTb57B4nMgRrym1OEqPLO26ru8+Mdz/EwoiJ5YjKK09jcs22Ydlvpwm9lEu+XW5VIlpnS4XDYys1hRxbUMRJPLmGhB8DUVpJ/0h+Pa50TYeZty+kUL8471qY9x7C9/WPNf+lAKn9TXOXTJnIz+l3eSa7UTyjHrqBLl+XD6KdMwMAI+uC772JFXEq2dQccHXax7UZU36jb7Ntj14LGcC3+E643LyUj2orso4dJco7h2AO12Ox8GriyZgUdSjDXBjfHO7Hl+PM6FxOY6jrsj3gUude/NLF1RrdRIH1i9s1h6eMmSHzrHXnulxadp3AU/CmnUgEdtklZrbvOCYFAKyVbxw+v55EG3JwhAZdEsHC9aGDUPc4eUmN0WmV1dY4wO4f4ZOMwRPF9f5EpsvQIroyJSq4udvcK4u9SytfV3NPvz0aa2ST9mD9jcFa3aHxTMuKvK6IHSKt+04QPMyXVrGpn/VOTW527c1T8VL+YgECFcfeqKfhClRBNfsXQBXwpkIMb1vYZqxy3CxikzE3yhI1mZOCiCvCL3Cy+nlo6E+n42/tPiAt0Yn/fjIhqCBJha6jaj64OqZ/NWKIFpLLTxraLo1miPpcaIRj0CbGPUzS3+PW/tIA6z7xcfVMib4nc7x5eKDain1eF1ZJ9WduTUR953APGX7GrtfLBkic3jo2N/sx1e0+QTRWZwddaaCQUbzEWmHHJUKT28nl10anedzQD7FONpoLGsKjA5QMpElSdt6j232eQxENPBAES+x6ZERWRI6we3uQK+Tx/Qh90uBIhRix7aXpNSCylVR6nhNKHYEbp41Z8UWBkLfoHoRChByDEz9iKHJClHLBAngG/k44gNeo0D41hLbteaCjKccX0lwXgXWLBO3IiEr/tBGVqgcVpIrxdCiauFEv9E094jrdFJXYB+2MmqlHziB6WikA1AWdg5Y12lciDaWhAP1ogEcVoQaflbxtZYZrwCjosACHTE7ip8eIBN5Uo7EiJMMS/vDxQLzusVQQ/zqNEp8BUTFhpkkKM61SMu0wr5hZEYJO+NfpGhneijsMqPqMXxeYZrmdnqtYdrDjP0BSz/JwRq0Hhc360eqvv9XOYd5s1ClfMRBbYrXBIj3QT/5yIdkoXTa4qvK7XBPm48XM6SH1eJOwvl/dg3Gcsio+PS+vdMWwJrgLA01kMCmmrwY72X/eTWxb2XHsx/Bg/SuY75lTD+d+ScZRNMV6nHT0eYWR42dvVT/gXctZKLuFm263Gb3bZ2Pm4p9FBUUJbrQf/RZCIw1PXGOUW7HGDmf2esWgKW0e4e+q37w+kfmtUfW/04g5aPIE6bm1ZSNA9Aqf9LhGrsFdInZkSsscPJI6B7Fm8Ghlds46vUsy7msPupa8RDh+UpylJU7aR3Ay9OnIr2h4GMYCZXkXW7y4qV0+lohYw67stRsrL01VNBbcgXBI1j29qkbCQhsxuSbafkhIFIgLBlUIzjTaJLMn9C2lB5lwBJWv8QaOf+CMRTXJd7Z3YZx/ut7OAy0Zt1IRA0iWLLg8MqpL/NS0aB82sAWSlIaSyL3go56ubL2Evh5I1JT0wGH4XiarRm9nIVdCGFu2tIxP8b/A4EHL3JbtgOj1PaO+yxb/rI3LLGGJq5lQKx/ytA4sBXc1B3cQM5T/KgNleEjO/B5BXw26l9DTf7pZphpWrOMRncvpt274vq80jJr+K4rz0e2UQd7b6wLWrMJesOFP/84VzfMRBRRVvrhcF7k/hTjd/zRVYJHj20F09u9mUNsq0rZeeYEaWkAQnEbILTWB/KfsuxK20bwqqRWPj2iuPFabnJlgV1epyf+HAkbUW47Z3TpfPV2Uyix0jNMh+pzuXkZQTa2yLOoIcHbr1RYImrr4pJW9qEyyRTlpCBGJUtVNAO9XzZEUJt/joM621siOATiHcqs/ZJUqsvTNdFQEPevyTpdJDsv4w7b5vtb5U7V6E4Ztx6mqRO4vRmygh/iruOzoPYufxCN8iC4GZVSdjKnQyLp08fAGWCySMatWEAdgDUyO9UvsoMajD+RK8Yni+eU4Byi9LOtckW9c3TnIzjjUEckrr5fT/IY/Pvu1+b7aCXVPKBKXG6Uyr9bSvcmXz5mQ4nFmhITMlUdcJdFyAcsacaZ5Fu0k1T2ursUwANn7FfslEjvBRz0vepGiW+YGgpztVJARPfpGTcn6NsloRaosgiQ/jNEPvaAyHYd3FyJAdcKsU90ZMEtce+Sjh9vLHDZyn7YUd6WJnSvM+ZMFzq7E+CwN1ts2H9QS1qGsfOwjjWEDO+AMV0ytTMm2vmvnz2AOgS8BmhCR1J9DZ7vJDyHM5OqhxzQpcbCkZqZPTfXhGjYhQOdd0uZEpNmkPqnFku+Fhc6oV5r+u+CUWDkqzmCWlCQx7MybYTAbnZClfPpGLvtNuiyrxVMKpC0JxSh8QHtrMqqUVs+7oBWYzUX49I8nzuFIH0QgusPpCbTOaEdgnYxrQanHRrtKYW5/UNLFe1cwRLwadT49ZKUQovCa+gL3KkOaUmZzUaq4QJLk9MxxVpjY2APUksqiXWJy0yx0VmV3uLt+CsXTSty42kr+cosLGBNnCgooHkRQZmIpxfWGy1NpOyTIMwYSIGYGThz8A80dYaHmndHLmhQPHMZnQOq3yYJywRHPuoBwTxCBFKrTpgtOI+N49l6lbWfYCyfTuHG/uhNCb6lAOGi002gh9uGWaw2hQneqAxcNhaadzC2ccnMMOm/aTaZH45YHDmChL1lBoAZuW3uRnQvWwyrl5RmGwbLVGPuaUfjk2+p67HoVNe4aF0ab+Nlx/btsxot8vHb0A8AlEt5R5p8bw6GWBpwjlBuVtZYXyAhoM4kgeGkI2nJ++3mSb8q23wYofJ4p+0vbg2iOohdXTFFjHSoDSU3AVj4kGvRl/nHUJEKLWkE5pIQv/6ncVF1iR6RQjluGNSu3F6RLonbhi0U3RqbrHxa4FSiglS/KGdcAdX1tjn4PPHVS5eGm+YSmkps9ktciV+6mUsVH+wbVpt9OBaXn4i0/Qx8REVsi1xtRmXbwyUFUajzSJdeOFQF8mW0/dMwC10bgrEZoogzCLH6KnfEu5ReEONu82Iqqa5AK8Vy8nGdtvno+IYGAKYVucev5QMU00ArQgkNRb63xl7D5nDTZhhJ1caaQ/LwajRH3KbYwnJwypGw6T/VSZ5szZw2EL90Zr0tRMC7EFKh7pRhfTzw5ddHKwmdg4QI9fixzjTCWF2xpF0k952EFqNANAkgXf3eakcHPOpx4IckWde8rAciUUX5r5BaYa6P8bE4q5nnwDq9mU20Qxbp1YYPtrd8LYt7pUnvWBAwDH6tMke0c2sTpl9zxiEnOLMgznww8S6/4d3OIactuZep2SFNTZRJjARO4/d0yxDFGFzAm5yz6cGMvn3tn4APLO9r8xwq+p4zBxV06M8/Yh+WjR9rtOVaYvaHhd2KHZ8sSfCmI2ie5Qg9pKIrN+VbHGNZ1DQTeUi+bXpE6sg95mY30U88laxoBRGlCS975uqB4Bql17v/+HWZgAA6J3UbYd2KooQ7w7apB4hOWXQII+jSbH5NuCtt3RUClT7r23s/7/8j8M7GYzKiGiEGpHieMD+SZLcv6Aeo6U8e+V/4CkWWLSGxpBGKloHlniEhdQj0NFgDmgOUDjrMku+UnJfjREUjeOIWHtN8Q8XVQsgaCGl3SGfF1yxyrhWM0JhJnC90FHaSNm0w1qmTV9/tihqJfsVD3riWuNCiM1myRHAhGtVUCuJtx6L+hOlBI8FrVu6KKv4h6TR8JvpnvGEmUxBsH0B3+8cS7b8ZkthDLjJRqusxBQ8dB6XpaRxgIXcmaLrFeuFEWr8zjYKGX3DDthqlnEP3iVK/WeCvWzn9VBidRtA2TFnlqo7hj4WzzxRP89b8sACQZuHlqEDqNGuZ6ePyyKGaJMQoz4l4Ig/QaTg2NVBmDGD8wK1E5aYQu85SBVo71IOdDyHf4XhNgVCCrdcd33wpgKNDtHblhlK+d67Vqi67mnMcqmTSi9bKNrEQmRmpDM2thODorY7z/7K/NchBrr3uLusEKI0Qft7m0n3sA/gTax+opf+MrbjiOT5EnN4ysl3HoS9a8MmuGmtbCaAiexMY2H/cxGXZZNejzAmtTFmQsXkp5Q7qmCdDq9rZw/tdMhpbde2mu4W+S/2GU/OixKGy586YLYW4REe7o24TGzgqy6UgPLgxBR+C31V8+IP1xBWfdpvm3ZCqwsU7lGkFmENnXteQLfgITaUcvPamIrEFVJMf1ORqZF6Et4+xzCnIE0IsazR7eig5yWuAFbt2ptLo7hxFiO32lwp3aiaMENzKGf3pyMq+uVBhzAxN8Vcs0N3Olsphy49w0aQm4gpDNmFs7dtR766kxcTKtZyiyIZ0DoJpj805e9x2qq8tHdm20QASftwLKdXD/re9Pnf/vn77YqLtJBW56E9/dTTU3mQBk5YpwvbUWSyvabyzUcLDGPj+WhWv089X4jhJ7v0vGvJcqoLPK8f0uUYJZxar+8eqWJ4zcmWfpKi/ZN9g24CEoRYcKDKDRbahvOeZmiDf7CgmRYjoHMJdbpMLYbpwdYoqlLjMOfDMWvxk6HxbkWKGVk51e0bagVVfL1rjuhpXJFqVjogJqB3jg7WIAk1yqK7AEaH+l6z2Rf9R32QGgVvK4aLhQoDR1vuW7/Z5QkkICbczDJ27itbgPahaoN67aGB+NAD4GnKAdnKpcpCcNlVDnzmLVTtVMxy+xVzQeaNuaQaqid99kNnw+gdVURTYaAtxkFXRDTBFbk4Kjz73UtvTUwXG6Xj507xNOOuZkSiTcJS2xGHNarM1yAaxLNHkGvTS47XQ5re8PLkGsOj+EMVSzkH1iFetzK/Cb0oESfml0iPmQE2lW6XBT4Je6Cm2IUaVVx5CJ8HM4n/1lkjlp0WXUyRrs1u9h50oSZVqzOIsoazZ27snQEAOtq9j6nxb+u1H5z9DWCdYwIFjT4LoP/uIYSGQfxQn7oSh9Bmf5kZWJw0cKrNdhYZY2D+Nb/hwiMCOcuzYlI3nudcRtjlFCf9/rOh8n6eGbhimcj0deM2Z5SQlhnuzSS91Fd9l2oaywpFjMxfT91kv4Obki8HUYSQmfivfsPRtc1S846iYJuz8qTmQQ1zHs/lN96Wm19H3duwlX9OGMLr1stHlv9SDAc5gQzdwnaYngeoGVYgaXuf4Tig+oNaExaxX0++2zMSRnVCmtwN/wbH7bPbkiFTj/uzZMrFGJggTl2cTfkn93USfkIv0MMZfH+tn9iVLz08/HCxn5jwIaG/R8ouIz6dlfDR4wNJBzrvgj0xS7WNbl7O7nyhAW/KMLEmtts2F7/gwNSNchDNuNX+a1Ic35oRwYHO424U9UO8Bf0k9o4hn9NOU/HdDxAt7r/CLDzNdC0T7MwZ7R5yVq3VZXmlLY+vhQxaOMYd1Mwwx0g8gwfIOMdJOHQ0ubJEqShxzGtikYFA78XM+CimRyb1vlGK+SQDwRnuQz93+6Ra86XGLGl7vk+eMH0D3hmZWuKVQCkKlRIzHGkDQaODeblYuH4YdKR1X9DuXPpE+KF6ubib1/R48+Im149tRj2eohFBRqfPVzXX8oqIUujnjt7oT/VavFmHEbLfvv3J3pKIPb5n9dkPHYSuIXjB8yWNSWEprUuVfl6Ve9bNlP4zhmzYVErfV9dK3faFYFgLtQ1YV7PZXROEe6hxBFqu5l99lptY7Wxom9HtRTivoG8dWqmgg2IOCSn6I7RtgrMabi84kyx8NkWghqRp0tO6SXhi9XrcfhJnierfGTKV0oPaMC74DiefQPQWSQLA5qgJzsaWUTDIqXyUZhBEXWGdF/o1mI6sLtY2vEmBlq0hXGtpYQJjIYL2OimRShXaMN8AEi8js8SPvsgHhw5TiF4ULyifEi2z2Bwob4w1xODI3Lc8Hbse+q+9m7LktKj0IBtnmnAMTxo3qjfGLrkd+Rg30xUqDVLaicnKJrQQ9c+yFxQFZy61rPfw5LvQ9v6fNMU4Rv4hP0KJYlBatwjody0xwitfrEKr0E++MKLFbN/cFQ2ydj0/XsGYCw7FNtLZZWiBJUP8Y0yQd6KILWtJSVnezuskukQwI0ggMSmRs+8s1NP0Luurp/OWBebYs3RRfehRqTi030CiDxvTHZD2ng69NTgXSLOITUnwKLehgfPonXN7WAYoeBDN41sngniLqq9V69g+LQG5P51g0y6AQQeijpeADmTQVOXAXk0FVjbsN721RnbnpRXMHWQGQcEp4Hayy7X/AIQWWOcqIHjx0q5MiyM5zj0+JXs/qWdsSACH1pzlyxjkf3BY36PnCAx+kTEc85IVhY4vSCCMBD+Tt4Rkk21/CL7pjcV0SpqO3luYxh5FiZdqAUbgmfELOA0V42M45xEfyp8U84sLbXb5Vfs/ObBvHBVa6+lqu300g+aX4SfEAu8XZbeUNIGXeLG2+reQqLkakeBPJGLT3SU0oqHpIVuNdwuDpw+rHufzc175MCnbSSnBrbAGxsbFlxFT7+fCMeNork9Yg6cAQkpFmn/1z775v6T/b506JTxDmBdoIYRgww3cDf1ResBSM2KySMWSwSehdUCL9b1Cma6o6MXKjYJFWZhBVv1fGrw27QYfE/ln4HSLQ7DrBdrzTr6SVkno+BsUFhHbz9k+lEi3sSTWoctBicF+MJILRxLPFpwltm3NKwHU3ngIKMFOsoA+8Rul8RQKppFTJsF3AKPSn9kixQ1wl5iaUK5z1n876ikz4alRA4RxpG/nmL5y5juJxpesxY/M5QOiYMXcplexXJmnclaWL9JT6ur7skOG/xZ1w4SInin9XBvsa/cXlKw0U81tozhaYwvra3No4LBhl/VsG1pFaocBKMjyze2MlHma0y6Y2SChFs9RcbO4t8Vl0ASKFcW1Pfheq7cEeC8RKDgu4AEx1G4g+Ncb/jkfgGvhxzKIkIGr/Y3Sv6EkxtKfkzUfqxPAve1NIgbawB1hchJabxkbDgmjPVJ7U2QGS+eNTKpQczOGWf7T/6zqZgDmy9RQbeZo9G2x9elYabUfmg+Whnsgt9yBcccEQpCSJWQ8/Orp3Bnsq2v/0lH9Lr4oKV39Cv8DBmSGu1Kjltd1tQG8MyT4BT2mdIASjXGBHVNmAAhvKUeBQ5AIkOTKmKVB7VnHbXBJEqjhu9hjM/ChFmTygix44LxlE3X+jllRKXn2vckWjqruC60WJhkyb2GtN3uV6WDLwZI5UtZ2Psb0Y9Km7W/elOAK4p1Vum9LiWWO43FeHp69IIjCgFhqgpaUJYkaOyPEc7FM9Vm9fceCR/vsKFTVg9qjvo904b2eLfnvCoiFySJ78WqY1IbOH6wQU74TSV4KRMyrOldwa6TwPpDEoIk98cjqyCvAeul89eJh0jo+wAq5LForIQsimLpn7wWhebzRUK+kN1DxpFI3meWoMFj0F+09zeGmiAIrt7GcKNlzUy7O8K/gTaf0IYb0JEwJx6DgnGjnzezhF77Re5u8tLrqo9hJWvx6Gf0GAGuN/wlsq0r3V/AfKI+Gpezp+WcqOnc4PtbQX2RESqM/KnNe16UcVVQMIAe59VtxQkzoXC+IOKYfWFbhlAL0b9x0ppz1oRot6zLHoD4cqACo/eC7Ct0slVNLQjcAhFMWuc0kx0GZwDI2MJ1XJdQ7bHkIPKplY6HmzmFHMxpHuhsUW7+0VJ3NuAGU+NfTSCtgH7XyK0elevb4DVeBUYlT0luaYCORBhPhpky8RfsF4RVGEaI5PEkmXQdU6uBedaJBYhGRkqfZ2R/WUeu9oX/lNwMlnKsBQ5gL4ZHD5QEHraZ35AEqk6+d6oCcJRxBjVPGnKt5OWqVxosKH2wed2GnFgEKfq7qMkcTwWG0tkeahhj85E3dkdW6QvvGUx7ud/NNVEaJss/7MsDUEcPNX9a6EWzhnNSlOA/keM5TMCYCyCjfcBXfnKMCPJI5BgBzP2uRlkBFza4P/PA9I+4e/IGkWUPVwWvklRaJBNHV7p825eTfUkWyUnpfh77aCcIKGQ2vIAYoqQrNaVIsk0C9VMHTGV0q950ad9Tuv3rdRzPVihLfdcn96Nay5/XTIS68csr1TCULnxsjCBbI7/SaAVu9x8nJfO/RFEr28snBfqdHn9vDvzh1OJjj0XRoohj/z7+uFKSe7UI3V648Bb8K5xAo6QPVLwQJYapjBBf01nQoyRati1vHvvgbXp87YOMqLjxMGUUehw1xWNB//sm9W6xrGq3J/8V4rMETabmRRoCeGC24T6p3YhfU7NTVJW2ohwKGf+XUSDXhOYbK1qKiR0rPbXGbzOuFrzw+x/Vz+AGcle9qyWwxuWJi0SaLBdnY36GrvGkPzResx4Ax1sV1XgVxVQE5dNR+tjyL7vHEHqxx6qAQzhCV8NbrfIIa7MB6UzhvXf0vIbEJacfEbM5mD5xGr6KAXBJL/bNoaxN5VgAvvWGWn6NQtV+0YiHBCepOfAQ8h4/FHI1EVslieuGZjEJCHm+C88pT+py3cgL9u4HX678c0Yzx1p9VVzBQOSfNAOHsyMbu+GuAV+mYvmhJPMdgyQk+MODJjZ9ihZniBQfjDDP7F0OTuyFPkKN6YGoqhixMWadGp/Qupsq1pYava1u0tOaVcixHF/O/C5eRv1sXhJoXeLxaQB6XyEHsOFh4gimoKdJJI4zsFOfhNVus1UBK+iuVi14duQeG6iQGQXvIcJ7t7MBuaN1aY6L6brfv+mnTM0DFJHzASV/utKeneN78VLcLjLnUlqqlkYhYwtpVL+ZP/tvpwNMveROuVQoVUlVWXLPEuP1fQgyF5bRICaI2rq84m75cHRIQMOwcAfxaZg+55IjvkvG0I468oL47gLnP/egpgWS+4iqlro2oCufsUZBLO0LQ6FiqxTS3m0CPIzj1vSR+GjjnBVjbWOCD9IICG0biY+N9jrsEr3GTFy9Jt1D06p+T3FM4R6MjLTk6jxNuN7xBKLyPl5/idbENM7w1nvc21RjKY2p6Bu87Iz14qLtyQueIOdIu+z8LgYi4KEDUbr7BXKvtlMHO9vR7/DBOcWhEgtU4tTmjxJWcKkBA87ubfxKm1rJD9T2zQCoxjkw4WPHoQuuS1SsDjFqo0o+ghTZoQl5lb4wOswLbiBKaDa7Q6Vx3B5nwFptbxBy5Edxcgp7Uk5Mf41MfrgGAUQLTzLeaVz8CK8MM5G8xQoQwaxkWM69u+8giLvmXHXI+SCre3Hzcc0RboD51f9Tv+WNl0CzfbkPbgF7Q5Mg5lqkSI/evvwCmkxWm8GydPOMnOoDAr6Mtz80tOMswwXKXFdnxX08n0gAaPqTXfHRC3p4IAyst5zpHDH3K+mNaTMznjGGn+hfg1Y4fcRTyAV8459oCEbuRGMeRg1IsN2pCZ6ZQnsv0D80lxgfnYrZ3PDiYx24HgSosKU6B6AhiEh4vRsP2hjlS5sObynbueOw+AmXauGC5cXaIeqNv4JmSP+RRR2puhav6z1nWpw/fXKjFeQvJ1BC9cvJYTUhURX8xGfg7e2cQWDVghGwjw6m6nDNYAkEd32tZY4kDs8bvVoS7khF+xasAILIHaLiCl0Nf47snLAYIqDmreqCSQ3hGp8KJTy2BCzWJ4Qibazuv6zldAdVl9N/N3E5Anos6B5sFuky6QXQySs5LwxF5WgLTYITOEb3Li7SJX50nJQ9u1burTOORlbTlP78tn/3MXzJr4b5bJCewlFzD4s/X7+XFQW3DgygcbJ8ukAoXpEGpq+JY7kSp0j/LL/UGkJK/h2kv1hehXzWLTXL20eZf8r5JQgwqQApuoWeXFGOxct4IfJRVKDSlx4DisbA3zpXi/9C0M7S4T1JgY9AMkXqowJtZpYFvMiWDk3UajJxA3smybQ9clccR8vv68qt98e/p71WvO8u7/zZQCy9NQa02vUoRZ5icAfG0AuskxqiN4dAQL+xNciIGUZ4dJgyEZEK2S3MoAE8CeyGWdeJ06LVfdZ5PkvW51vdmfOPJ0Ne9ryZQ75TAznjhx4S7Ucjg6/ph6bwsHvZAKWvDgIp8fuZ9fvA6PvBkzpusXeijRs0EJiRCwAxKsm5a98SAxNbA3YACRDoXFrMuibOxwITywlJPPT/FpARYIjHl1aNC7fi4qeggcXlvNoFYyPA+UR+N3ZDuDSEeoeZivqn2BlHt81xwduOU3/viG119JZUaVL8rOBdG3gEMzspGdAysHxOv9DadlXjegbuKWC9nW7A7rshXFTMF2UsZbY14RydhIIX1oZagD1mC152gYfR5urS5zUl+XRv+URBr/Yg7SlWUCM3duV+mfbML3Mk5d4B7h8ZAFjlkzS22zcWKqX+fT4psNM590fvKp/kUcaRAzfMD+g7LYxp37zfaW40veOMVrS0Ij11wRpLLrxVYyAn7ygSIHagil157I7ibGt/92gEJbEyqu4j+4o/SDxqVAu+IzORc8+ifUsChNvTgO/CQEP7YVXFS/WovzIDWEKAVcavhd7TMXroSihDFIAd4RjE1IHmDpUyNSKikqcETdKcHVkSAW7fMaKkNk9h/CW1qQN+FYHkw+n8LZnARZRu1WGZYewy2XjFus4ZqgdLK4ilA2OMwYb3Ivrhr2OWWVdyDoDjf9ej5PuX0oWuZuulhRL6GVZovtzGH6u2UvoaQuyQrpCZ5N/m0lYsaRme2eRak4QbRmt5enW8vRnOXOop9HrEi9aohyyjS21vcmAmeFyZ0ygthiAUfwjWW9lChSE5t88zD0yQlylcHh3l/NHBvZpD85aumIXxg2/5EroHdJTTmZM7kgVQGB71/5T5ujAduTrUTYKS+1FmQ1+MKtM2s6NkU2rXZO7xMFkgYB0XZvIxKVm/vfLCQejOXAl/JtqWUwUKWQhOcCWDtoUkXXDRdxrAhU/jBkIP27Xydsc4QAzCIgDVzwNxBuO6gAQH3zQUrpISLdIhFYUJlJS2h81WKtVOUiLr5b7XqLxQpJ2Ns5NgA1kOQJUO9O8M9oFiwOWiqy0cBJPXAN16X8ECKS5Rh5LsWx4IPjl2rkL0aKRD47zhv4N9cT44dkZ+omTuIpxnWzxKvyJKNQEZrpjSG/s7unBDSqGFOZjLlP82BQP7hYWU4zEHMoytTEo/Pd1dK/E8nZuQEqZ1BPZcSoczp17JIVUkUfxFgAMPyw4vdEtPvKnxPewHWPv9eCUXV+/EEPB5x8c8J6C2dCWpVrCGO1rp5gYR0IcqoKccab5Hs8TbttKJM+wya7EoX7RlUgLSL4Gle9pe8EIcCd+z7CGaiw9NkB1MukByx0ABSLJsNqIdBAvAMrJqd6HqrUt+R8xo2+xVr75/I9gwpY8oA+wwfC7yaWQHszbJcHSuVgNZd6zoCp03wF180tlfYvt7JPnd4Gg2VCszDmS9OCEim7ipoTSHxSaZYajilEytlHtmFFEpe3qIR+MBRblOYD+HxbVNdYy1ByZUQHPh0LTQCdNSdgV3MFGtXFF1FMIkSW1TvMpMZq7uE9a98LZ6IqJJMKLVlwTStnnfiwhI64weIq9Y9lNjrFBOC508QE93ySKZiA0XK/AYltqmuy8dxMvOJbTT1m99fpUwBC14uwDjNXicxrndWJpnJNAqV3EiG0iXjxwBllfB+/GaCHvM6JRuYz2fi3H/BtHZ93XTUY1oW7oaiDnONd3EMvNBI5KBgVnaCNb+Z39Hf9/RjqfMR/ETmBAnnM22Pouzm6zEL8juKcckPNI8NEsKcfmPhT8IGzFFMZr8pEQNtfgigsaaW2Ig/jtPC30vBwqJEE4wjUl4UoPqxm73DudCHR3X6RI5YboFVnCZhoZQlIg9rrPfUNtQGSwI7bYkEEv3btj1H+3msKZUQ+6dF/wamvZpnWFNpekxaUEJa6e42I/xGyzse13hieVGG64xVUzgJgxyhJPbuF4xcusu4L7wv3yhimWjUk3Tmi7lMAdDiyjG07LSP6sOYTBtWXm22JQGhrYg5muhCW5ncASl5hBci2mKncnWlr6wG6dqQvvIjBNWlw4/j0m8KJQqxx9Svws37lqZlfW6LJ4ECa3rtE26z6eYpTd1Z/K+SNAnh2Wz7eahzJVVtZZ4af6oYMCCdUfXLMaMxmUFJlQL/2dQs80XqBTHU6cPvE3+/LbJTF5u2ifau+upqvqGHJ9tLt7ADEOXDNeK2zyuipXcZ27UKnIwK1UyggjuCHOvEobZgt11qM0Hvk8j3mxv6jTgRFX9ryzR2lcXV/Tqi4b0O3X0LQux+/fQ+nM46L66vl/zIim0Db0BFEK4U6+jfl2wSV8Xc090sOCkTlwYPkhCgtcBdJ9/OaYJE7p+mSB/8xVauA+jUISfZ5QH0yF8KvYrgXG4w7wA8rnmX15+r6UhTkAXewqobWNKx3XAb1QBaICWbVrb4eI+c87uhxt/pXW5kXA3ibdoTxOh3vJnraQkgUDewPc5aHBTaBVVk89YyVKZBGYujkHO2SnfyVQW8bybCShGt3Hil8m/tA9piTW34Ys/P10bhUjBJGk7s3ob00Fl3upjanoVnYB2EmU9nxu70P0+zbCjnhKL2rll43RLlOSEScFsNzqwsTd+hCwd1npUHKhbBc+JgNOx1j2XUrtj53JESN6bNjsahcCzvDBaKqJqw7HrajvhY+OXfs5WLEZhIDnZritqe1gpvAjDCzfURMGnP0xxeq3bKaf+2oF2xVyzfehrsE/SGHW4G02hsGwcQm58AONr+gl1bRDoI7ttPZ6tyfOeTeQsOxcGd1Kn23yOe2MQvNfQb3/uguiycMc2lKazIGTlN7ebFxbu1FQtVLCCz7uHDOV7146fz62czLbtL68hxrB0ludkj8gWSa4MSdv/BB+ah5ynpBDGh8kabf5/8O1euj/xbZrQmAUmb3PLdD4i7HJZ9IBhmFPaIOKcolnFQMbxfU3lpx70VsRRZLvwYKZvlmi9VUCVgUpp7HAUio40cXONSexKpZFndLksaVnZjqRLfRf2KIpRzLNalhAjznFbwo584+AiPPlWjLpOh6EOnZDW4qoNK5Q2ELeltPrcTU68QjPQAwtoNEwXEGIm3NENZCG8eDjHO93uXxylsSu7ClZmq2n3yRozD3P669wIQuHnomILpS1dInd17X1QzSSkTQys/MZ3tladFjgV1Y9NMUFon9GvsWxPt2cAr1LMByXOgIpI/QQtMapfIJpX84vw2fP9Pz22wJxscxxse+a5pvCub7oZqeXzCXbSYl7uqvAYNM8AiCUIM02HEYF6HVwyZR/aeni638ExmWFqSMHEOl4//nYLFu27ECBevXMlrOdVn1VhtMLdg6topx5shAhnHwu6gK6kNsIT7P+lKbflOqRVUXmjB88AR7A4u6wTImd7l2o5hTvUmjDTMHSoyW+54vyGC8xxmTTQ2vP+gnaPZEbZBfPCJ7eyyYm9+G8M3Rjv1Auonjul1dK61E/e07Xxr5OgztaS9WH5xpcySA3SfpUMxYqPswCoB/ltMEmmpJQBsIEVwqgP6UecqwaDghRPL/ERAQ72v0Gy4LzT9OWohR9n2+0BsIxfEG0VTyCKdPaK1ECjqQh/Iju4g1owwc9rrkJxwb1rZ4Rt14anhFS2DDQl8l5qC8iURzU7qXYnW5ZsU9KZT9adfJ8zuns3S4QF8BbeVKLhbsWjliwLGrbzjQYT/2yty976EhAiXTdJZvAAX0H++zJAPev5zZMKbTa4+mCWxQAdgie9lXclPHuanpMU1ltw/KRcoAaOqCqyTsOk92lRlzaCeKDXB7V88nhYnaPDbfhDgy+/5z1Ln37TTG18XyRmrWVYCXSd3fmGH3sSAekx8RD+Rp92Of5KaiTblOe4OIUcHyO0uoJi80fcIJoFwibAEtyjH8MnhoJhIHjgqFSMnWnf6+DIFO2CNeO42EUtphm/RVUMqxDe8fhgsyp5Okbnx9MFamHTueNCbFXQtWLKc1KLALHhX4qec3jIy36Hdxz+xR0H/P2R3ODu4BT9sWNFylwPY7qg1rybLm+bg6UTbqOzgzQ8A+1AzDpUEGgY4HEcsKo1lBRY5v5tSuJ5ta2544RL6Ic1W0rFIAT/5INqp1l2D0WO58GH7vfDNY28xqZKVIgNv9yj12WKVo92heB/y9Qy8hOBUqXCjSln3KpdP/AA9NYOVYsCNHTAj/+T9z8lKLMuRRM5zumTg2cW8ViArSytgT33NBQanhYjesBtL+F5iltmScKLleQ7azMw0Ax88K9WyMTv3/ifI24FKaE/FpLWk9zusiyNBePqr1tJhNxhM/Z0Um+MtBa6S4TLHxfnz6812JbAYYjqk5JcsCW94J4diwECeGSvB2U50G97EWTPn7yWSZuQvo/x6LZN1W7XkX3y93atoTBpLSmUD4tix4lhsjAUIY+r41Iea0f8wmpMDfGuZJO9xDLLA/heW7GgJHBpr+fNFCeVyf/lUZTGB9TURmVGsw45dY+bOGwfkBUUdNhqz5JV+flrOQONaOsk4WhEQYxnh6Ryj2GzUuxq5PLqQ611ZfDRB6GEOAAZ0QbXrAISyHRFJLktiERMsQWl16NeYl7XAk1NXcwR8GB+o6GPMFlUHA9PZ64fA7osAruRhAAIaI4KhOE960AnN0X3KUiHUcknTozdKSrXpSdPzG09GXEmwu/rfjIfXc7s0Se1L/wGoTW/d5Jb4yeo9L3GqIrdzF2L54zptqZ7RK1WRA/zIE2T8Cs6MGNeBki5mU1d/OgbLBomtFFE2tqb7tZ6uvyBaTjRPQX6Y4PDbj7DC5ECj/2pUPW8VanhCtCs6p068l/92NWBD9GUVSCg5/D7iI/2dYvB4QpiG5ckDyaAp7yOpRrqySZSLFChUZW6a3Rk4qMuuegZZUWnFeL81FAaY1DvHEyK4W9aeKS3vtdt70T+IhAgMfPEQJBHiEHTUGxT91HsKgHutYO99bAgWHC+8DncR67XUlkA2ppMTyAkrP3FnBKnaquTB76nVwYjst4CxQ2W+9YPITyNv42SJiOdnTY8IUqOQ0w20+O6szKCLvuB0209CvAWoVwq5C5OmyIcptT/KlmnS2TDcfRtfBm1zrHuC91fur/AubJrrgFYMJ6w9xs1pRSiw0xtQkxrtZDoopKQ7deE9+D5HRnmQUso+yKBJNF5Mrh5RNlBl+0SIn2ftJX29Oj0c8gPb0ejnqzK+d05m73BVsSfUYdUelXyotn4aI4+BsBG+DmxGzUZL9V6I7U+3s2i+TP58aDZ4F2BC8apysrN0MXDztsylxpFYpTopEqoGMpiQkUA7gry4k3tlCs1cSNaXVRivYcVjG+5TuvGuEsRy6OnEUrFmMEXvGQYlkMg+95b+izcgoRaDUlwYjrxlPfGH3S1OHSBJAqKKTvM4fOZNtG9wYMfJb6tFDGPqWiw2ilzSA1utIVeO5Rn8f+TPeDQiOBhpyDq9YKkr3QWExGJeJEMd35Sc0/uw6pVn41st4GePuiAHSAb27ZuuK42t0kpdB23X+UZQ+GqQdEXeqeXHGUj1Yk62v0K7R1QCNWuCJ+JDxFmQcH1296PgvV6YxjwQ0bafT1d1pFSN9u8+XMp4wC3JCyvycvcDbtb1MjCI38UKsShBsPbr0TG9H9no6FkooSB0TKZOM387H56yc5uvbjVEJWPss1J3n/49eFZ+qlwaFFHfLU0A4O465H6Jg6sGpgXU9LPE9Nm4+8dlQtC4L9VpJXnWg74AHvNe/quoR2rleWpgTrn40D5rP88gLc5mNdN8mn7iCxyRUQgp15BxhE7Pmhg+cwLUGws17el3z37FRS9Pr52hA1hdtgGdClBfgIUkbGgQOdyeGxawpOU8hXSA8X7pq6VaUSYcEjGvnVBmSznWTbPLfBF/PsC4SNYldNWOf9N/UHTzWSbytwAWXQFYRLqEEQhIxsPY27E4aLPytwGnwxkUj4VQmSYpmhU+TNiZ+1nokc0I4Wb/sm8N+IfQh5eVsEXrxc1sgrFMZd1DloXQ3BhULvT3LCJuAz3f1HPiTG/If6bFFUuuAOQN9GwzCRMTZhaqlbMeRqJjSbJBjjqshsPLS2Htdw4kCu+f3wHTBO8JAeU8EX4i1QxCfiIkoVq6AR2mXiPy5h6nRmBXFvHmufSBoxv87o5F20cPMvMUryU0E6hnyHuQ9ZJWmIidAimnEaG5ys5AOpqM1r80V8yVfnTeFx9w17pBlMJVkC8YY0ozGZV9DPSCqSU+i7fT6Ab3UZyQvJy04AJTNem3edMHnXwQ0ThC4oqdTIwo1F54x36SqMG7aHY45fw46YimBHtUvoTJpHb2ZpBazNAwRss1FOCmWQJiJGXHLn3wDXfKVPuMYJgssgrIhxQxcy0Oyt2SFWA/fi9iPioGwdJZEk/tA2RigQWb/SzXvyWjJgw73XFS3n9Q+KnQbRHNXIHJGEkVKiSZ9F4akgs3iFt+jTC0Hu+Uc26sgRK7EoHlIJCiJb+tjumJ9piJYjPRDPPV8Ozvzk0Z8A2EZKp7ZZ4MMGEE4VRw5MCrrUs7QmwXcGhFbzytuoemJyMuY+RaE8a58iRq2Ra6S18Zr6rRtG94TMoLKlyJxRElks34yXcjABot2l/Z5NJWjzRp/c50krRy+aRn6sCRCETyoAZ35G5uU25wII/9usXMtuEZRIxeZMH7JCfSKDHk7BEK1Ebxj5dnhaIBAiSVOjKNbIKUjYBSLfKSlGE510ObjquZYYIK4pRerP2RxyumpyMBil+69hCDdDT2QyuVon1jAMZPwOBbIX9oZWuYwrppqDTXVZVO+0KVIR+TaXrO077a08L2uO2CAzq8lUEeUJMVpfqx2wA/13WDP5sCpgP0hu2HL2iBLJkJhQx/VOEv+V6M8YHL+imf5ZYtFwslwND6Q3pIJrHHMhDg8Ma0bDqYkkhiju0zqt6Gj+sUeYHKnUvi3Y/rSAL2FRUcjmhb/uA2UryHU9Gs1/NN+VLyoF9JgmxYqXTLOdaSl787kwc6wts+IStRMocNjZBqYxzAENWanvCHWGQnaIfbmFjyM6zZl9E4osniXZzC1wViyEgM7ZJWXIuIu+iJpJCYs8I5eu8fCAfn3wsozH3aIeOREd67qEjepOar808I2ihw6I2hJ4ebbkJ9UD5QE+ySFWPB+vh6h5j8MSrRRmOC6Bq6C5Rk4i89jjXeY52/4F/B9FcIv8IEKufP7uDFSoQcchI0DD5RGZf5GI9ND1A7OAe/CDiSyjhLNqjcRpkZq7swdLr4TlVqRVL+FTDoZ7GLwn6TFIgGChIcKCdWY4jSX+4h41RW8z3LgkIj/sqtsRh/iGDrbtjbHZz+0xDiIegardd7lFtrz8wua3U9WU7rO27fwaFtmAuaToVqaa7fCMmWjaz+8l5N8JWd8AXR0dmFtMEIUSSBa+qR+gkL0jBwNO667BT1qsy/LSIfzKcK3oWW85Mtzwsr7M4Rf8yWvMsvNCnHlGp/grSv2HzLmS8kW9Wnln6FXpP+sNKQzyazAvJw1dyJruke88WL1rjHenJXrbPh0rxVho4j323zxS7W3P/1onP4ijG+xuxsuiRm+tX4EJzTGTL1kkp3kIVlEllJ9wkiCQmzs6ibawMHfaR7meJprbPAoJpcAElFK5NJ1ygh8LkACYXer+lZzMdtaysFmWCJrW7PmQRYqYPv8SsG9q9YHq4lkCnc7+Qx+KxyNa0nJe9BshfOvbNpSWiL3vWc+nNNYMMo+HIQzxfUtLAyFwscnhjqJIsP6pLtLxAtP+Lxhp2z5cjeKEUvhUTSlxH63WmJYbLiZWcNSMdo4aJ7X/vRgUuvWfj7py6CS9ku1cwtk2rlpT9MZ2Txm0MxpbWCRKJ/v0J0WFTkLW0naF70jsQMXUPZnOgHGvVRq/aenABx6Ei8aaRn7fYu4Dk7jgkHXMv10Y2SnptyKEJoc3rGM4yQ9FjHmKoqdlnkS7e5bX+nJmpPq9jN43EO3ITqmeCcC3kKPAt/WB08j5pMG0RG7Tpm7X89E/AV8B3FeWb04kujz+DKBqLDU4gXGmgb9e/68l2QMc0HT62rqCKoGBEjNTnMVo1fDKPKCNjV2GHubndkTC8Bpn0bqrDaKy0tZ4Xqjt1hY2CZxjfHOTA4ObgmnuZZZhO2r52AGTcuXHL6r6DZ171ZXMNfRLBQIy4lxZzbktUUbl2Qh8KSA5ZOiYbczbfeG+P1ccGZNc2OIQrWp5CTs1R/47iqjA10pHkEGBM3rpaituiBmu2yF2FiPQDXwUfY03N9LhSne/s+QcD+RhTRRswqxwDeWwT0LIvoKBQOgw/rNJCb4ILIo/6fylTi3fNwx1P0f1Xr5DyX6g5iGLtNh2wrKFZ3DuCSMOTNRRJnWWwE+vthHMtyV/Mk9hnc/a5kzO6KLZ0bO6N/XtQeDPXY3GRJJQWnu7+V+lJL2181eri7PDYMK3vgsqNSrVq+ErUfDarM5GbCgZggLov8BqChIGmhLuxS9kOv8rr+ur6ZFRB6vxGJdxHBqLw2Dqnh2I7ChzzFMHsJkARwe59yuafof6HiC19nRKPKoXTGosl5IyYsTTG18T3nPL5k/DR8lyEgU82UmqhtIVMMzoWZOIFwLv3wGuueCB5C/aCIn2CyWOpqZoHl4MWL/vClCou9xRBhWYBxXjgt28PwLHyZwkPkc29N9TJa5tfTwcM9zeJL2DKheZdc0R5ttc5azJp3wxNpYQm41y221rTKXkbXqM3S76GItR/cZdZ5nbgN4i64NLiey0OCKGCThHUdfBfjqNoDeQ9CDPbM7/XIbIkQ7vuOfWHt7KYdyKx/EbPofY0MYHhkPLJorfSORluWl/KSXmsxLIQ6sjo5jY0bhagyTt3FReewx2yTn/iAHccZDjDAFi2pkM4fd0f22dARJO+M8m6OLIR/p0jgtr/seDuDW/EBvfxNUkBd8RvGe/5sR/Ary5Ql180NEQ3+wki02hlZBiv9BsffJfiEZa1lGV3Wq3xk3i4p3tfW+xykhitZozuD/lA8becHMIRUI/4ukLEjoOWxNsrtdG3KP99cVRe2suWXD52LHDEyH1vlTMeOwXHUUGGQ6SZO6gECayAcLHaXjjmI75vqs2Xtbw09kXgx1lCvzaIVpCKXE5dcpCP0ZQW4l3kCzd3T72kMFfWjcmJrA0edX5iL0VWzoAjjOPkr7KmV+tgzHMGwhKWOh1GxbCUdAUSAt0mD0reHL64eiHSoknQEtr2z3xYxqgaaHQpcUEuQ5sE1BBMORvyb5X54/5E6AR7twTqRVtCBokJwBw35aApopi3X1TRa++bQRSXWobiMT8iMUkIj0T99tWfNZ0Y1N10RI5FRPPpgJnDSMZ6RJ1mnpYBq8F/Ep+MyTkiTcGIhVs3uUzTZ68uuHBplM6GSlGYgPK7xqCslcew27ayggRmvLpOJHxMe8rFE+gqeVXIhz3advUXZ0zYJn0RxOXOTbwypovmFEROoIJgF0ZpDtrPoNNUnvL9mYkyfrQYRqso4mcFsSS1lkYwSglc6OuJd31Cp6agQ5rBiKlrhmdz0uxF+dpWvsRCoNcbWObMCsQhvHZydgixH/OlBHzfE+rTqBShT3zchFG9wxgnjZ0k37brRwjhNB9yW/Lh3TZR1feZ1i701SLBQa810aUxisBNY9oeRyFNCYTSGlCCAE1LZkw76QvRHrYA2wNVp9CE3RH/6niceLmJMRRS07kbgqF+eO9XUNB/YUyN/HYC56IvKMNal7n0+bX7OcH6UPa+JqS8JE1/O54Meid9owLTsj9PA2GdhXoIShbzrLJkHEjpMKtFJx8nHiip80U97+qGTrNOehJsQpuLThpzHM/JWuA5x6b/i2MtCblzTgO5wdMcKbjD9VihPIdARatW4zOur2qECif/gSXs6GM2wmV8laObx0MkQ5r+EIAeZArSJd3MCGFBsKX+jLuvp55m0+Sti2uTyYGJFLgUneDmLVrq4MioHpInWVvPRu9mYabnZnTstXPssct2IMIDzTlSrGTpbwrReU0dYTyBDytNmS+M3c/xAlHypN5iBcO46A2PJ2/Uc56uQbgdMlJddyEXTSYRpnVC22Zw27xVH8xpBcipnZBDw1emJD7RH4r3AAVleKLVyW2ULj4Ml32HbedJrOP4yulip9cZoQ0FP68oU/AMlTW4z86xZxeLvb+mvvv9ZuO3ZmrF39CA3sd4b9nhjr/JRrsaCm85GvlIyNOHIZfxotzcQz9oG+b8S7F22U0ptInlYhztobsPU5wpyhD8VzAgGsLlw+qqR6uNZXQ5nwbygNuWELHZ1HeCUhfTYn961AD2eZ3VljaEMJm2a1hGTJuZBrihxwGmaTobypg5SKYidVvuI5xqvbZFwIqiJilBUzqi2TV0azEk7BJ7qqs3O1y9bLhysiCGyO/GVlXZw8CvPQmE/Xpw2vE5Vyk8Do65pAl17G11PqmOtPqIPW6Grgiu00iQp/34AND8ktWxN1SaaJk5EwqDVfDniDOB2layXQpXkaMhX1LStlIcWmfbk/XYRngWGyHWbSkXgOQA9XJiXKZTYCrl1N1zbYd+Y4jKvPJN7ciwHAn+92YbH7bMQ/x6qEr7cyefMP786NScK+9kmHFbyjxCJUsm+82DN7Qg/MNW4n/dBqpZJLXkNIitSVoYNNarv43diUPSFzia/FV2uOTgdJusNAOcOJiGztc/7XdIoM6FAqvRrbVM+Ncnt9VUM0qoFNF/MtOZ+DLIVFRZ+3AxK+DdbGS/bkz3hsFM1aUCJcSV5MLbgyEHJrfg7CrZczfHs+cbQEkgg1UD9vMI74kFPHW5PSmJtPMHbPIwuDmA9ze+hyoZYQ90QeybSuqRrvl7Gbzt3jkb8gj/JRDRWWbfLtJeA6fPL1Y+xkSx4oYHlDw4LQIZxEROZ0kAVlJh+N0cuJgIJK8X5KqJdksiYtu13nJZZYlqlZcGLQBqRTKZ4f4X25wpdaI31xKB1W2jOL8BDhRmsiWkbeNNfe8/g7NAECxX6w+alYnQDzcl3i2Dcvm0tvVBtfbVEthd9bM2HbEJHhYWW65mxRmgL/doS/DOMyrAOgPp9V2aMT5DC7BNtqbnJv1+uo3tByoen7laUNKPjnFpqt9/86+IEH/dHMG5ZAX3vEh1VanV0ENfyHvnTmjmFbeNulUGziBMG6LlcrYFQZmse+t6/pQglXP5Vr23YxqE0c2NXJzZIO+OBGX6ALchd0Ji5fPjvsiq4nK5qvqnMaXduPvLMnjgzwXXgMEcSuvAfIjNry9ptDuqNlCR3YKxEPxFyDwPmQBfECfYeYd/KkWaKrOjTx+ZpmLfWNbbn3kHoyLs5eShk5JWJ6lkwX5XPv5fAf9rkHUqV3vezTHRVBBI0HBx+AVf3TLqDJ4aOr80HSUVB/NOCP05v5wyxFsVpdRXKKE7ZTsgXuLapoJTwBPNlgdMZiuM+m+pN5d88ZFqXTgxeKXQ3/ZAdEwIPKAuIYWXvKfrM/VjdeumcNF/dmD+HwcpF3vq/PJRWdolAGzAWUlqQ5yh0ESXNe4M17FB4lioSHZmW6DM11BPWWEKUxxo1JqnHPLnaCDiPMtCjxjlcO65r9AbZ7OB+cQUQz/uGWTze62xq0Ba+iKuulGE3BDQCn4FlrKC4LyxQ9ZyKawyMgOP7hLEcIupBSX8YQjZqrzaXv36Yx+9qZtBplBZof7Pv7KOFauAuJrGD3OlVqOJC35xgvF5NFjul3ZXQDBnSIkRzqxY+Rw3WG9esjySQfEULAwEbUJceZ4Fg4SkE0qELyhUjrf8Aa7Y9XpaWVslbPNEVOBp0EMzx3aXsXFQLhdUW1OxL7VJn3b2Ubr36DL6yvUQOJGgj9KfJ3T6Xj+XS5NnPS8De59iOgHqCWRLB7eJScPSnFl7hS5GYXuJmoXnqBWgcc846M5TSY4ailW91R1oUSaVsr+IW1qTdfRByYhfALDIWrPMAYlVR5DidSXMOqob+b4HCIoq7WoZVph3AEZOGV3JBDMRPi65UWcW4nXQ+vlZbzhdz2Y2Se4zRQszV8AN4KXYqba7pT4qJYMEZadc038Zwx5eVEsMUfJA08m+JC3dif6+FJ1BUlICT9Jio43pD61qhAv0eANd4Dy9+PHePDSgjHQ5JXfD7Cs0+LI3Uw6Yd8daDphnt0/lkusgWxkUISMZP9AHM1clTeqBOvkAVcT2Kh9iviJg+lbfOiZtqT22rkye7C+riA871Di0fxOqxlUD2eDe4Eujsyr4ySPRA3h++ZKpb0EhEQKqWxh22bfHhUD9eQ/jJVRVHuYUz5hey7pdsPGErcthV2BcgnyDAL2F2Aemcplc/cDP/FmttyWCxcEARdysf/3QfKsAUGahs34pGaPZzUr1wZI9g7HySeKfyIe3fk74nApfIFq1Z4XpxayDJc54pgrhy4vLNb6lDkT9ICdzt3uLCzvi0uuBG+DnJzW/SJ+hduCz5UU/+MVrunv+2jlSVrR0g8cK5jGuqjz9J3Ma1iaO8zppOY3sGgTldms9qy8UywUWCLEOmUb39R9BNXBTCvxULk9nEy4lUDclBc8bK3cFOE/jT3lGwA4z3U5r2sy7x1M55v+KFdX90HUxbSEXFSqlz2cJZZ+tQBk75cZQ9q/8XbufXUA0cn8f7UDdhMYtipP1HnLJIKcouNkSSBIHdPxoaJxpuLOsHVB60uG2VwJKHKHXgH1LBiUNqDrUSc++rconjRXQbHq9U2rFdIB/Rl9sdYIrHJpXeqaP/nIHBUT1gcniqIwgRlc5zGlzTOCDfv4K0Vbd1ocom9REPsDe8E6RzNnA4Hcc/d5LQZ6U4SGzP5I+YKj+h/RuHseEVIrOIvwdqj1Oab8gb0OaIPlhXl6g69y4D5ZXQ1qBu2yWeEVDhYUTRa5E56QJhtkdvz+wwBVg6jK7uZU/ya2C9gNWz+/X8hnKuUtiCzrANL4F8ZD118g8k4KvYmGNIsQ0CsY8C2LSktzutH74e1DisGGns8LEmtdXiTBJTytZ39bqxn5wasdBIx3XHyhR1UcRqMtUDNXuKjDZrF30MRi18rFbt4W1iDb11KX+ZbGcVEKP50gkY+mmAjp3XvaLOVlrkiOBcdqXLFw+FJsqYWgXEwrIWAGagp89mt4p9GudCMjTD7QgaqIhKPyudpSVAqCvQIZxfksw1LI/7qFDKcXYx+Pii9uXDF0uaHblzriV7lOQ/FYuZrS2vzgXvQEjCb28i7ZxJZjHgz17YZLlkNrbehel4CcIckF7B3YcnXpFSeuThlzUHsx4mXMaMC3rclXccvRoDdwqZauJSxqPr06hGAwACStQeWqYU42zaAfIwsQhpK1rPFqGWpJvh92FUkoAqeJswIXJf086DaqNZDsbSapCmuQi/6z1A729xYAA53wI302E99rCPQyLK0Uvm7rJB0QJeA/5Q0CsuXqg4I4KfgHRYguvqPWyKAeQ8dMlKtktg3xwo8b+Umkon/v+62LJ1w7qR7sdM9iUKQe0tW42i5QrwXU7wnu1fy8ObTqXE6maaZGtBk2b7WOyMBv3AuLbkreha2XYLzwmvf9Ph+2eVu4fpIB4S7nXED+01o/tCjYYFPN5x/hD9R+zYG0fc3+U2jTVDMO/kW4eCLqGAI0ztnuMZWMDJEjLiaL+Z9CLOj+Ht/lBpUzh/24Bp0cp/fZbFYA5ujU+j61y1HiLLMvB6YYWGwUVNHPoRifNVJP8Y8ZgPCNhs4vctZ7UWfK5WtDflK5iiUaT5QppLbgrKstfP3GxRGhHrsGDN2mkA4IbbiJ6WzoFA1WjO/SaTNy8NKlVyu2PjtkH05UjuOirpFyopomHXhGsozqF89vuvZQED9MkiUfhVwB6/45VhsH+lB2WL5NDMxMOdWtg5oAsVmweOSEOLax9qQ+3sgmpjqpcgEOEWPohGcygqdTTmJvX7fiD1VbuoTOtoWChySCVWH/+rS6NbqeFap30MDynmabSSUvhbOseyK9VqhAc7HzsYtIttxbWalnSkVESHTjPRRu3SIHR/TkqnRsHgDqf5BM4dOwdOZhuT5yCZMP0mkZSObJ0ID1XmRygqooDWOvYoy+reipe1WFVtDM37Ngx5ELUNF0wJJ1dEdev1FsV1mF5rPF0DmIMuckg2o8m+RNG/O9+jfm4trHNolaBKZn0KC62/ENBEyVKmJAdAE3byQgML3BUz/7wKuP8dYFZKC9gclONDgnUKKb5MhctzofM1jCqa1UelBG+OxCfk9zvlQNLhMlLvAVkuWnbgQ/kAI0aQAIkqAi+ij2yXPwZetF8Np0j3W4WMGQsYEBxjDvTU3Suiw12RCvwDR0Ue4OVsDHGw5Lr/o69qRc9DdOJZNlH2vDy8mQqonBXfh7Raco3vJDhze1XlgqPP0ZZLanF201gUwuSuXVnrmqNBMlSsLXcMRnbig9+N82SHnYXS7oPTXHvfwp/6SBF24sctBUFSTZ+3WhV1ARjyc/D58RDUxAv8dnUN8wIip/tPWSSaSKd00KqoAOLkY03Pd1i06ZFxu8UQAIVyUdj/apeaEKDg/fgI7jHs4vHnvxwAV3sZFL96X2LSeIDGj6qK46Tg1vOu4UZ+76z95rMkYEv3GUFLhvwVwSUitJBK9DJ0tiZt2A2j8OE4d0S1lq4mDWKiwi0wRqub+ubI7FduPCoi0d+mntPQqo7LzAyqTVIMo0GuV+YQLLrjt7f33ZVFEYpUPzGVoENkCIpBt+pDOn8BPGNVH0m1ofHw1bHTPI+FupY8WsQxR/y3ERUMar7AanUhS/hZpY5MIzZvWhYSiFRw22DyMOdgZos5A3AhYo0R3io1ZmceW0GMucb0hEKtgIX1PmaNPV8EfcfGuE3MP6cEpCTluJJgbZdVgii5ahSy3+SbF/BiuCVpBbmsEZYNYbk0gJn3wsikIzXHw7ewrmodsAEZfKFb2IDfVxtFQ2LZZzGCU/WSOQsf2cSgtXt0wwOPePOj0nMJf7RbbhyAdMaDH+dLsJmNN3qc4QcHIYfzURM9rrQv16tocTFLSS3qhO87tSutU92CRf3BImf5UhlRSb2Scx+5+gf/KKaM9mNmuvDjA3V0daAKvIV4Rvqu41oDmOqcsz1VRR1P0tb6NW3f5oJhVFvHGx8f1kBl/Ed+EM/wiDPdLLn7sV62mbpuSl9nLjiqc/eJRwuxz08x7JWT7c83UwAwoqndOGepG88RFU6YMuBb6jSu56fw2xre1MxvCP7CYDi+cA84YG96tHWKNoy1OhY126aRpTh898Jc7aFf2I3+PhDuuiAUNFy+x3NXsJNquSfuVS3kIi9wsn+jUyq+QI1QVtd4K9a9QY3hHM5b9mFEwQRrgK58rFt57C5Zcx9qYjB0njWhgY35OpMurcph4PrNucueGDW+3Q9PvIPldUsQ/30WrNUc6+/bfJiShZ+v/cSi/jP64fyG1goVx2yDblJEmCh7P3YsDR2Q1/WFn8220hnFa35zkqhNYw1bMJGwgxiLFSQe1CgYHU8cHNii7nim8uW0gDY8Scz/dgJ7FR2utuj4NrBKMAtP7U6g6aj4e4pn+6TvIixdBDLWhHDNcVuGKgtfzj8SyUO8iwg5pY9dfke9mwyoARhIZ5yiKiAHziglgVDLdJAhfHiIl4cj9lh+yfk5wv7dbR/uvFMTjw+m21nBsDZp3PUiG8PlWMPNNfYYjAABeoJXChS2kSjVONNN93/tuX3FLmbe1XCPqiueNHFucVp81/5YMamvQX9WyjLAabC6enhL30FxESMUDKhg5j2YMsrfoCvKbw9pBBM50K0eJNPSgv4g2+dlVi0NW5f7nFX/RRDeE84UDTzSfPWhOgmjcCiZmkZqhRDXF0tnOb2oEhFOc8rSUDzD/zRVKqTxyj0AgIAM0Z+GFPrP2j0oY3gk+34NqOoxO3I5lVBs6ZN/vRHBhWAnaxgEhxhrNbleC+6MEZxrxrw8EENXTb3BLwr8C9ytsARoqvb/B9Q/yFjpAaOah5SW+YGUK9X0sjeHr4jKKz4dR06V9awIC1oEIpbeR0fZjuQfnLMH4AOzihOCmCUUSoM3b4AQP2CkvwBILfX8lAEyvR+5DXmXOLk8kkdoRyYkF2Un39mV2Ac41y3R+D36eiGw74eIyCgMnuw69U8h7hDzk/CFjJVGUXAN51JWgPlQYaQl005ROfXf1e6q/anRtLUg4y+5YIKcfyc/qa8LR0cOT/01sM9E8BVuPHzL/W6zqMdhXjuDJNzKPNa1JAiI/n7HTjKjuIB/f4OJD8e0nN+fMUkR0+B6tJb4dBGRv8pmAurC91TKriuDFv0SpfO7+JhVgRs4w+hpkFYtX3LdGZys2a5auViwI0BLPheZcsuCl0DrCbxd1UfdHuJ4KIOLsE/l+HB8VfeJIh5DKk/Mj/GrPi7HwQ9fszQK4fu/cf0u82nbI5wfKWJd1fSVcm3RDhYVImV/okdnu2tO9Q2pQGQ0ZYT9f86l6t3Ovyi4bYDAsRwhaDW6w3W+A4mGJpn3aXoK0g6b6sPZ9d6zf0ndc6rezMAxNhFxRLDpgzjsNliqEdq3wEm3ATovtkmNX0DyDCbAmxGwpyufVVvh3cxoIa2wzSCOdOvDNtyXGfKpk/5v6snBbXRCqIoHxcl9tF91f6Yc8qJaZJq25133LGfkesORl/NIpAJeGepDMWgBVqkxO7D7ULZeSrMEkSQ24m9RSqmvj+l3fU0Z/oO5MWsmH4JGRSeA7BWv0laiR7+G6CH8q4DgvFY57Agnjq7CyLK3uesBQ2thjtDZcqFy8x/AizeJOqe/OoIX9ocPVaWZ646AQck8M4DKaPj+VPp2qLX/cfvgF/aE0HFGDgBzMVeZW38OMsGHzo+40OxWBQTJsUe7hnAy8B2nFxdoL1y5mx9daaoUNe9lNSAkMlIpK+6J6tfhIVg85liWs+fr//Fw0BM6VwAlW2TNiV/WiBhmsphLbZofd/thpCeiHIFEA39YS3uyYGZJ0YUZERzfQ/7zFJrq2L7nW/teff2vwoL7vZwr9+jC6ghaK+Bk9812N6M62TYZWENVF8IU1K29bENfkbxECNrViyo1AaWFnOYBjYl1sCAgQhPbXI8K127k7RAPmeszv/TtObLMWD+AENKgCepHx3YTMpPA0C24JK+aZ2rqg6wafzxCFO3g92+EQ0rj2Mx+r3QoLuQBmkyywa4Ui45MycGCUHCXUfeCgBIPOqdPJNyeO9jPMX+2ipzA8PqhNlcWKOlJwSQ72Dc2pnpAgWUR3mE3AEa9qyOcpdLhD0UcMWJrUTYm0fDl5lU772RxY7tn6cColC40XO9b0/l/EjvdPWWGG2PY37QIbmj43o60i56crfi+srdSLmV8dW97UL+5oB6sHTlYtZihDbRr2C7EnqHNf5iGHJMNMlu9wrlLQS7+Lia3WNhdUi0Ko5OnvERVqUnVKTiCy6bkqg/ZQQCPzyQGOzAxj14EvKJZViRoo7thKXwonTeXqbNXThSEUjVDIPqgms6cCEN9mO4TV4Ea0HtERaTcoXBED/KKaHsl8jZ0PId9tdqVTm4K84VqazFF+rDbu01DfOHkBwSl4BjtgAg0jobCc1rc3TgqgcAqpZXzDHazd24wBjL0MtUd/aKxwkp+TlE9JMV1vVNqrUZno0ixR8D+1lH41cyJo4wNw8Bpdf8X7QVVTj21HPSKJhL27Wvc14qNu5RrUBoTsDh3YD1P+GxVEQselh8WuYMyrAQDgHNhf1Vi4ImheGUgh96k0JYPk5WrgvAS8bWTYgc3ubCZ9PRztoAjOOrXfaWzunrpaAmZ2HA6dcZGh727LGzZ4oO4aV0TIk+VKjClzY2P9Z/sSxgcydvW3Pjhs7LQ4RbkUceo92O5MqJ3RmNhPppXIOEqJOcMhej6BCsg2tNWkOYwOKuVw7zuVH66ylGpwD/Qn2WVUMU9uQly+91vh4zQhR8TxNzuH0uAFkeq2KM9c3Fm4WX4BzGhDDmFSlpinFeA5Ux1Zbx6p8on7O9Ud3wm4fhGSp6CyOB1hsvpZoTLOeyD5DbEHxPnnzJACPHjOmorRFOKwm1cAxBOK7uS9GRzS7I7HMJAfkR+ZHRgmcsDPvXlNk2JlX6ih9jCNNeaYcyjQ6ekIf9fPActgDpwr5UAa+u2YP2AUD9dEutgdsRYWdfmyC+lTsZ+yYc7kLdRCILfmN3pKWaG0ZGrhC1dNGw57+mb9JHt2YIPpPokHkkipaTJmfu9vRtSR0cWE/RfuUtW5rrVAvraBtaYdbSMFhbyue1K4YdASpHzSJ61kfq1KrgGYVP+jHNXkFAoQ8lVf8FvCqVw3DrwUTAC9Cm09ADux9IhTat4oDQFHjXHgWlziDL54w3h3oluXajdcTHMD7yBp4LobLBZWA4E3tdvU2b86BaF4FfuiBWxnG8Qi9NvsHxPSVMUvcBDQp0H6YyhtLRgSRz8b+gVO1zZgKOYPi/mrCLe615DWFMa7nPs+gVdHIJORLrg5bZRReyV7G9vEXu0jR0VTH98A5YtwXTYqjYUhiR4OgrBSUmFvERxVJd6H/pLtnCQuWEZw0hR1uw3irHjdscqewCiH3YXqmoiLFZirsY1C+ykMmZs9WqiDE3IqXPqDx8mtR/D+hu8mU199k4+WHq9E563KASkqAy7l1EDHNikoQiX/4LIva3QYIWjVa8uEtNeQ9DIQ7pWhn2E0xauG35/mRcLcNgRqRzX5IkkOgOXKLMTc2Kx9AdNFnCBiAc6tfxiLA1h/uwoMgaz6J2H/TZRcbggX3+IbXQ2GtJBh6pb1zvF9EPUUVWJFtUT6BHKbW4Xn0YM7seeG7b6MCd4/P/M5ECJWCkWYTfxJ6c+Sys2ffm/w7aVWGB/KomwD8XEUNoL9Gpfmo62mq+n3Qpi3i7Khx50q5x9yACHcC1eARApJbMJUmUML8g3DVMP+pQjUc6E/9BMiPdXBhI2c1yR0F/2NypHN7xErxfiGS3IpxNBCUghHTp/a6CepxGCA4MecCjYuMv1o8WsjgC//PSM48UxVrIaBxYWMHD8Ug3Ay6C9A5HL61JRRNILf+4yz7i34xq/kPm1zYUKgm/Xztum5nb54jh/pXVwLdJgDuIql1F9rR72urzp1cRS3/1UFmloFN64Q/UCVFN0bB1xBAXFSWoa2jhy34aCjD1zxI67gHpWfbsYzZke1RDxUGqRkuCGZWmW4gitxOPJL99nz9M67pTG26Pgj5PJSYzbOfnT5WY0uBCUC0MmxKfUQYsgsbKNl/YYQNg1aHN/o2gIABoMc2zCFfBBV/FQ0EUaS0iwImxTBx5XHmw5LUJDGUvzDZIqWla9tijPr/kKLUWpPmpvKw5Og/f17pkZoztLERYNbOS6UW26eSoymTMJYZFq5unXHr9He1RVCtB636mtO2hj4Mjo/hEtjBMURFAeuGgc5DfS40VA5LG4O/0LBH9tPAb/r5s4tk13vRCfPqRDyoK2YhgxEBAaZ9NvAviqlPls9EkKRgRQT1s/eFHWWudeFpTDgi5NKxhvf6Dk9mS64BJwUMD415AnTr5x7+UdtJt2nmiDKp931JAf9H0KAWZpAuyWo0pDjGNllKtg2uPBlDlsnXV46PfGgFWoCKlBcm45teICMVu9E9ujt0TnCGB5ktBqP/Tt+6a9THAK2T+o9SmfBS65L8cc76Yj4GOoB28QN4e+aS4ZwX03UHkJR2y4h3DQavFfoZ0jT3Tgx3MRXcCTDzVvNW68WbLbA9AE1p83LHWZrZ86ISBEnMM3kCRt4wzO5O31PwjNr329mtrIa3HWs8cSAQdgH7s12kKRB29Dl4ZoXW+OVe6JURkpe6GKX5Y7gbyud0ELvaKlxEis6uSk+csvS1VtKXXcmY8mX7UbdYpKI5cBU2XirBd8Xv2NWTycSRaDWE1zEQDr0Lv2agfc2R0K0Ioz1jPVakhQyAAAEN1Q2YVEzCqQzDw6lyDE9/2FCmf7WtaD6NI28oTB4vMfmq0Sdz4vpZmBghXA4/LIXbBHPfhyN6+duCc0gg2UkXjyQ6wOji8Hse++roZ0n2OL01H4HIqp45GPWgOyhBIV7zg5gqO8xQCDmfwbRTyvli5SHpLgDq6IAaPttl/AxE0oBwrlAuD2eXcRIurRfPBXmMqG7qn8iHCbqrul1RFCcguF0Jaa8P8yRE2fOo3JKHUTYkRZ+5Vs+8WCcjBFysqLhunBabk3xKym/eYTgvVd/fUd4g+lra2Pqe+eKUhfpKsl+mCLepIzGi6yUTLpawSaLro/A7zu0Kj81bOjQ2Dvy5ZiwBrh4nmJrIKBhanhDJVBmzSwpScVLKEuzyXH6BFPOilleqm0XAU+Q7p9LjojGGS2fKQxcNzWfjY4mtzU9QGC011ZHgCNzfmKCwsQf6TxAtZ5JStf9lehg/FjxcpTM7EgKmSDb0scuG1fIumVk6ljWd6uNDXIPOMwSizz70u19xFLRh6p8UmgNy2YGL9r94uwgCYtBHYIotXeiCA+HVaBQxgObZnuzcrrv1My5eM8lmVUGqZJaNAzqEu+m9tWR13ZJHpC82emDOLK+5Fr/+HbaWb0O4TlqySl8UJlLbml6hnquZ+FUCpYytoCsn6OGL77UIdaNX/+5UxRdnBpAiwKmiI65k8kfDnI8uY/SVl/X7mV1HWj7i4fe8+ENp4sLbBXiZJO5TvulrmJovQf4kIp3HVweEOLHmlhvm0k+vJ32B3IafHw2vB7+Jprh8276+Dgvyu6tK0mZBE8hVeYf5La7VHgOUPVKwNtXi7mUvLVJAKRACHxpIpCT5UdZBg7oeg2EY22zG/fphWYHFGeJYBoLhOOiMxu/SF1mG5xhe7xWGwlylvze9L60kNJxv6Y3b292o6UWgxlPUdNnwZSzc1HP51PBmDzepnSEe0x4Y3+QhjoRlNz6alK3uNWvCVpiv9ehFIqXTI4p8WTpzh1mAfxr9qHaNWiJofwNO/AKXPHxkaYpC3pTBwNEISnQix2d7EngHGGRh2rnKQoOgcIy3MEAShwy6P46V4o4D2SDiTwuEtVJ6XsW1Jid5DicEB9GXNiQBNO2KBBQ8AFwlUlq20jqwiOffsAvkx7v4d83NrjZ0MG9257K27CGRZXzTK19uRv+F1SHxN7L+DTCJpn/vMVSfFBD8DOxhc5L47i+0VtoiBgFyA+rV9ViUSuwijX7zTESdCDp4/iRaVuHwuVN30NrFasL/J2ZH5kavGVTwzhF8rh4EqwMw15cFw0F2T+dq0QcliZ+aeEW8XBVk5v3LkxZ6TZxgrivZPJ1hWmkSrA0Fn2Hjne7haNmULRIVqNtaHy6ZEgC7LVx84/CzHvix2wOwweUk5KJebo7Rkkb7hsBgMfHrMTTAUudbSmnZSapPdNyU9V3dtWFX9WYG+o+a0hfya07cJB7UrAnHm0rLFMqDYeqWOMu2VB6IZYxR74nuDoMgfmlzZ1PMdPEVFXUJzPWxvE9WCViR8LDm6Vrdubd7hn9qwjsOv4gg399UFx++6NFES0SF17/DSUQG3bSWOe4ow213/1r/WmuAotLiZdMeb+FSHTploO9L9Bhpp0cDML7gNpjvEkd+Z4uDaTCnj9Ru1t9xw8tkONqdNkp3+N6xcdLOiGQ/H+XF5wSvJmVt567jPKx642kaTqehOWirBY3uvzHpBuDAo3Fli690UUggfaStpVVP8tDlMYwyDJKgaFprC/Bl/KMXsdr3mMJ7Liw8JUnIT9Hu+PsuyF+4d7+e5RJQ5kSJ7+RgMtCyqkFX+9wKauQAQwVsVKNlK50ja4Mnlye+2DnWEBQSXus+VQ5YtMSL68K4vlGwHwd7THl9UXcJd+mO85tqELjwFBuLS+OIwPX9LmW2STPMNz767MB41KvSf4cydKVkGRrwSwG1dDGLUe2myRoKRdHYLOPgjr0zbNMVd7pPqpMgwF0SPvWRnDKjoWiAgsHtww3AqX0iglVFIx39MFjQKkgJENeIduoQDNfAItxNDCXfZa4/UGjKXZ1q0bTIZw5gxguRCB82t2MFUAzC3a/FY8OPGKqhrci6XpIId8qI9ZfVZil+WN+tqP/PLTzDZL5uJCVrk4CUb535t/GGJWUKUNzi4OJ4bjhEuaHLI03uPfJWmfEg9eALR0wuOD1y4juOaxh4tS1UyHjCnRxf5zYsgwo3IB/sAJpsG9lTKn/RNViwjmFUBa12zTdGPGxf4NH9Q9MaMPp3bT2DHDww4LYJGDmxERqIiKpKN0NDF7EzLpxy5t7TpjFi3lf8Ar8p1oniZLWHQDe5EyKjAl3vVhvPnMx6kl9hhX9FHERGJ88sD7rY+swqgKBecSP0VofKdnXA6maAtboKOckArikP+0jUaTOQKCE9KI2fP0ZRLnWzg6n2FXVPjwHeA1U2htYhb4Db50KmmU10ggVkhTt5QvwQphppPv+Qe32jI98BbI5IiEnmT3SU0iFKt6i2pzaWxjhr6ipAR7HyE9qRL6SCVKOvNGmSWgE5jMhWPrzs7dMqvbcW7pJwq8p+1TW3QA7BRKD/rVGGAAA;" vertex="1" parent="1">
          <mxGeometry x="-122.38" y="820" width="304.76" height="160" as="geometry" />
        </mxCell>
      </root>
    </mxGraphModel>
  </diagram>
</mxfile>
